<?xml version="1.0" standalone="no"?>
<!DOCTYPE svg PUBLIC "-//W3C//DTD SVG 20010904//EN"
 "http://www.w3.org/TR/2001/REC-SVG-20010904/DTD/svg10.dtd">
<svg version="1.0" xmlns="http://www.w3.org/2000/svg"
 width="115.15pt" height="44.86pt" viewBox="0 0 170.000000 500.000000"
 preserveAspectRatio="xMidYMid meet">

<g transform="translate(0.000000,877.000000) scale(0.100000,-0.100000)"
fill="#000000" stroke="none">
<path d="M3085 6042 c-243 -166 -462 -426 -566 -674 -43 -102 -88 -242 -95
-300 -4 -26 -10 -48 -15 -48 -5 0 -9 -7 -9 -15 0 -21 -17 -19 -53 9 -18 13
-48 32 -67 41 -19 10 -37 21 -40 24 -3 4 -36 20 -75 35 -38 16 -83 35 -100 42
-50 21 -117 41 -165 49 -25 4 -49 10 -55 14 -5 3 -19 7 -30 8 -11 1 -54 7 -95
14 -86 12 -338 6 -367 -9 -16 -9 -55 -108 -58 -147 0 -5 -4 -25 -9 -43 -24
-98 -30 -336 -11 -457 23 -155 131 -465 156 -450 4 3 5 -3 2 -13 -2 -11 2 -26
10 -33 8 -8 22 -31 32 -49 24 -48 112 -163 179 -235 l56 -60 582 -2 c554 -2
766 5 752 28 -2 4 4 5 14 2 24 -6 75 14 67 27 -3 6 1 7 10 4 9 -4 33 5 55 20
22 14 44 26 50 26 12 0 136 123 170 169 30 40 60 100 60 118 0 7 9 27 19 45
11 17 18 35 15 40 -3 5 -2 14 3 21 5 7 18 35 27 62 23 64 77 163 132 243 24
35 44 65 44 67 0 2 14 18 30 35 17 17 27 36 24 42 -4 6 -3 8 3 5 13 -8 76 57
66 67 -5 4 -3 6 3 4 17 -5 95 62 88 74 -5 7 -2 8 5 4 7 -5 20 -1 29 7 9 8 36
25 60 37 30 17 39 26 30 33 -9 5 -5 6 9 2 12 -3 24 -1 28 5 13 22 239 115 317
131 29 6 64 14 78 17 37 9 387 8 451 -1 l56 -8 -10 50 c-5 28 -13 51 -17 51
-5 0 -6 9 -3 19 6 24 -31 50 -72 51 -17 1 -88 3 -158 6 -84 3 -133 1 -142 -6
-7 -6 -20 -8 -28 -4 -9 3 -42 1 -74 -6 -108 -21 -108 -20 -92 -31 9 -6 4 -7
-18 -3 -30 6 -80 -7 -160 -42 -17 -8 -34 -14 -38 -14 -12 0 -119 -54 -183 -92
-34 -21 -65 -38 -69 -38 -3 0 -12 -8 -19 -17 -18 -25 -30 -9 -42 57 -6 30 -15
75 -21 100 -29 130 -173 434 -196 413 -4 -5 -5 -2 -1 5 9 16 -94 164 -110 158
-6 -3 -11 2 -10 9 2 20 -157 179 -244 244 -41 31 -77 59 -80 62 -9 11 -48 29
-62 29 -7 0 -31 -13 -53 -28z m240 -122 c3 -6 -1 -7 -9 -4 -18 7 -21 14 -7 14
6 0 13 -4 16 -10z m-185 -330 c5 0 11 65 12 151 l3 152 55 -43 c30 -24 79 -66
108 -94 51 -49 52 -51 52 -108 0 -35 4 -58 11 -58 6 0 10 15 9 33 -3 50 -2 52
23 29 13 -12 27 -19 32 -15 4 5 5 1 3 -7 -3 -8 1 -23 10 -32 17 -20 11 -22
-38 -18 -40 3 -18 -9 24 -13 38 -5 75 -36 76 -64 0 -7 4 -13 8 -13 5 0 23 -28
41 -62 24 -47 28 -63 19 -70 -9 -5 -7 -8 7 -8 19 0 20 -5 17 -110 -3 -60 0
-110 4 -110 5 0 10 36 12 80 1 44 7 90 12 102 7 17 8 12 3 -19 -3 -27 -2 -43
5 -43 5 0 16 -24 23 -52 6 -29 15 -60 19 -68 17 -36 28 -83 23 -96 -3 -8 0
-20 6 -28 6 -7 14 -56 17 -107 2 -52 7 -106 9 -120 3 -19 -3 -33 -20 -49 -24
-22 -31 -23 -175 -22 -93 1 -150 -2 -150 -8 0 -6 42 -10 104 -10 l104 0 4 -47
c4 -48 -3 -63 -59 -143 -10 -14 -18 -27 -19 -30 0 -3 -14 -34 -31 -70 -42 -91
-64 -143 -67 -160 -3 -16 -20 -62 -35 -95 -8 -16 -10 -9 -12 30 -1 28 -1 60
-1 73 1 12 -3 22 -9 22 -6 0 -9 -35 -8 -88 2 -126 -2 -132 -104 -134 l-82 -2
73 -3 c39 -2 72 -8 72 -12 0 -5 -25 -34 -56 -64 -53 -52 -108 -86 -120 -75 -3
3 -5 76 -5 162 1 101 -3 156 -10 156 -7 0 -10 -58 -8 -171 l2 -172 -34 -14
c-18 -7 -49 -16 -69 -19 -19 -3 -44 -8 -54 -11 -11 -3 -269 -5 -574 -5 l-555
1 -68 67 c-37 37 -70 78 -74 92 -6 23 -7 24 -21 6 -14 -19 -14 -19 -7 0 4 13
0 24 -13 33 -16 12 -17 15 -4 23 12 8 12 10 -5 11 -11 1 -24 1 -28 0 -5 -1 -6
3 -2 8 5 9 -18 56 -35 71 -10 8 -60 109 -60 119 0 6 35 12 78 14 l77 3 -81 2
c-82 2 -82 2 -97 35 -9 17 -19 44 -22 60 -4 15 -12 27 -17 27 -6 0 -7 11 -4
26 4 15 2 32 -5 40 -7 8 -7 14 -1 14 5 0 9 11 8 25 0 14 -6 23 -12 21 -12 -5
-24 37 -24 81 0 13 -3 22 -7 20 -6 -4 -7 129 -2 327 0 23 27 126 28 109 1 -7
5 -13 11 -13 5 0 9 10 7 23 -2 22 -1 22 138 23 77 1 145 -2 150 -7 6 -4 21 -7
35 -7 14 0 34 -2 45 -4 11 -3 37 -8 58 -12 l37 -7 0 -69 c0 -42 4 -70 11 -70
6 0 9 23 8 60 -1 33 0 62 2 65 3 2 18 -2 33 -10 16 -8 33 -15 40 -15 6 0 42
-15 80 -33 l68 -33 -1 -112 c-2 -77 1 -112 9 -112 8 0 11 31 9 95 -1 53 1 98
4 101 10 10 73 -24 133 -72 88 -71 92 -76 87 -109 l-5 -30 -104 2 c-60 1 -104
-2 -104 -8 0 -5 46 -9 105 -9 l105 0 0 -80 c0 -47 4 -80 10 -80 6 0 10 33 10
80 l0 80 34 0 c19 0 41 -7 50 -15 8 -8 17 -15 20 -15 3 0 6 7 6 15 0 12 13 15
55 15 l55 0 0 -80 c0 -47 4 -80 10 -80 6 0 10 34 10 83 l0 82 110 -3 110 -3 0
-102 0 -102 -105 2 c-61 1 -105 -2 -105 -8 0 -5 49 -9 114 -9 l114 0 1 120 2
121 -187 -2 -188 -2 2 118 c1 65 6 123 11 129 5 6 15 48 22 94 7 45 16 82 20
82 5 0 4 12 -2 27 -6 15 -7 24 -2 20 4 -5 20 18 35 50 l27 58 1 -187 c0 -114
4 -188 10 -188 6 0 9 83 8 216 0 119 3 219 8 223 5 3 10 15 12 26 5 35 7 42
23 58 9 8 22 29 29 46 7 17 16 31 21 31 5 0 9 6 9 13 0 24 33 45 75 50 l40 4
-42 1 c-47 2 -48 -3 4 54 37 41 43 40 43 -2 0 -23 5 -40 11 -40 8 0 10 17 6
53 -5 51 -4 53 42 97 45 44 72 68 141 123 l35 29 3 -151 c1 -87 7 -151 12
-151z m-483 -222 c-3 -8 -6 -5 -6 6 -1 11 2 17 5 13 3 -3 4 -12 1 -19z m-1289
-162 c-7 -8 -15 -12 -17 -11 -5 6 10 25 20 25 5 0 4 -6 -3 -14z m1088 -98
c-18 -26 -22 -17 -5 14 6 11 13 17 16 15 3 -3 -2 -16 -11 -29z m1291 -120 c-3
-8 -6 -5 -6 6 -1 11 2 17 5 13 3 -3 4 -12 1 -19z m-1248 -254 c3 -4 -2 -4 -11
-1 -12 4 -18 1 -18 -7 0 -12 -20 -26 -36 -26 -2 0 -4 11 -4 25 0 21 4 24 31
20 17 -2 34 -7 38 -11z m1181 -53 c-1 -3 -11 -19 -24 -34 -26 -32 -38 -21 -29
25 4 20 9 24 29 20 13 -2 24 -7 24 -11z m-2223 -363 c-3 -8 -6 -5 -6 6 -1 11
2 17 5 13 3 -3 4 -12 1 -19z m2026 -113 c-3 -9 -8 -14 -10 -11 -3 3 -2 9 2 15
9 16 15 13 8 -4z m-183 -279 c0 -3 -4 -8 -10 -11 -5 -3 -10 -1 -10 4 0 6 5 11
10 11 6 0 10 -2 10 -4z m-50 -50 c0 -3 -4 -8 -10 -11 -5 -3 -10 -1 -10 4 0 6
5 11 10 11 6 0 10 -2 10 -4z m-160 -80 c0 -11 -19 -15 -25 -6 -3 5 1 10 9 10
9 0 16 -2 16 -4z m-1207 -33 c-24 -2 -62 -2 -85 0 -24 2 -5 4 42 4 47 0 66 -2
43 -4z m340 0 c-13 -2 -33 -2 -45 0 -13 2 -3 4 22 4 25 0 35 -2 23 -4z m240 0
c-13 -2 -33 -2 -45 0 -13 2 -3 4 22 4 25 0 35 -2 23 -4z m225 0 c-27 -2 -69
-2 -95 0 -27 2 -5 3 47 3 52 0 74 -1 48 -3z m139 1 c-3 -3 -12 -4 -19 -1 -8 3
-5 6 6 6 11 1 17 -2 13 -5z"/>
<path d="M2890 5475 c0 -58 4 -105 9 -105 5 0 9 47 8 105 0 58 -5 105 -9 105
-4 0 -8 -47 -8 -105z"/>
<path d="M2968 5573 c28 -2 76 -2 105 0 28 2 5 3 -53 3 -58 0 -81 -1 -52 -3z"/>
<path d="M3130 5460 c0 -77 4 -120 10 -120 7 0 10 41 8 120 -1 66 -6 120 -10
120 -5 0 -8 -54 -8 -120z"/>
<path d="M3263 5573 l107 -4 0 -99 c0 -55 4 -100 9 -100 5 0 9 47 8 105 l-1
105 -116 -2 -115 -2 108 -3z"/>
<path d="M2753 5353 c26 -2 67 -2 90 0 23 2 2 3 -48 3 -49 0 -68 -1 -42 -3z"/>
<path d="M2890 5350 c0 -5 5 -10 10 -10 6 0 10 5 10 10 0 6 -4 10 -10 10 -5 0
-10 -4 -10 -10z"/>
<path d="M2993 5353 c26 -2 67 -2 90 0 23 2 2 3 -48 3 -49 0 -68 -1 -42 -3z"/>
<path d="M3233 5353 c26 -2 67 -2 90 0 23 2 2 3 -48 3 -49 0 -68 -1 -42 -3z"/>
<path d="M3370 5350 c0 -5 5 -10 10 -10 6 0 10 5 10 10 0 6 -4 10 -10 10 -5 0
-10 -4 -10 -10z"/>
<path d="M3453 5353 c15 -2 37 -2 50 0 12 2 0 4 -28 4 -27 0 -38 -2 -22 -4z"/>
<path d="M3538 5353 c7 -3 16 -2 19 1 4 3 -2 6 -13 5 -11 0 -14 -3 -6 -6z"/>
<path d="M2890 5120 c0 -126 4 -210 10 -210 5 0 9 84 9 210 0 128 -3 210 -9
210 -6 0 -10 -82 -10 -210z"/>
<path d="M3130 5025 c0 -189 4 -305 10 -305 6 0 9 116 9 305 0 186 -4 305 -10
305 -5 0 -9 -119 -9 -305z"/>
<path d="M3370 5120 c0 -116 4 -210 9 -210 5 0 9 95 10 210 1 133 -3 210 -9
210 -6 0 -10 -77 -10 -210z"/>
<path d="M2758 5133 c23 -2 61 -2 85 0 23 2 4 4 -43 4 -47 0 -66 -2 -42 -4z"/>
<path d="M2998 5133 c23 -2 61 -2 85 0 23 2 4 4 -43 4 -47 0 -66 -2 -42 -4z"/>
<path d="M3238 5133 c23 -2 61 -2 85 0 23 2 4 4 -43 4 -47 0 -66 -2 -42 -4z"/>
<path d="M3478 5133 c23 -2 61 -2 85 0 23 2 4 4 -43 4 -47 0 -66 -2 -42 -4z"/>
<path d="M3610 4920 c0 -123 4 -200 10 -200 6 0 9 77 10 200 0 124 -4 200 -10
200 -6 0 -10 -76 -10 -200z"/>
<path d="M1463 4975 c0 -27 2 -38 4 -22 2 15 2 37 0 50 -2 12 -4 0 -4 -28z"/>
<path d="M1703 4970 c0 -25 2 -35 4 -22 2 12 2 32 0 45 -2 12 -4 2 -4 -23z"/>
<path d="M1558 4913 c23 -2 61 -2 85 0 23 2 4 4 -43 4 -47 0 -66 -2 -42 -4z"/>
<path d="M1783 4913 c26 -2 68 -2 95 0 26 2 4 3 -48 3 -52 0 -74 -1 -47 -3z"/>
<path d="M2008 4913 c28 -2 76 -2 105 0 28 2 5 3 -53 3 -58 0 -81 -1 -52 -3z"/>
<path d="M2578 4913 c12 -2 32 -2 45 0 12 2 2 4 -23 4 -25 0 -35 -2 -22 -4z"/>
<path d="M2738 4913 c29 -2 74 -2 100 0 26 2 2 3 -53 3 -55 0 -76 -1 -47 -3z"/>
<path d="M2978 4913 c29 -2 74 -2 100 0 26 2 2 3 -53 3 -55 0 -76 -1 -47 -3z"/>
<path d="M3218 4913 c29 -2 74 -2 100 0 26 2 2 3 -53 3 -55 0 -76 -1 -47 -3z"/>
<path d="M3458 4913 c29 -2 74 -2 100 0 26 2 2 3 -53 3 -55 0 -76 -1 -47 -3z"/>
<path d="M3663 4913 c9 -2 25 -2 35 0 9 3 1 5 -18 5 -19 0 -27 -2 -17 -5z"/>
<path d="M1930 4810 c0 -53 4 -90 10 -90 6 0 10 37 10 90 0 53 -4 90 -10 90
-6 0 -10 -37 -10 -90z"/>
<path d="M2650 4810 c0 -53 4 -90 10 -90 6 0 10 37 10 90 0 53 -4 90 -10 90
-6 0 -10 -37 -10 -90z"/>
<path d="M2890 4810 c0 -53 4 -90 10 -90 6 0 10 37 10 90 0 53 -4 90 -10 90
-6 0 -10 -37 -10 -90z"/>
<path d="M3370 4810 c0 -53 4 -90 10 -90 6 0 10 37 10 90 0 53 -4 90 -10 90
-6 0 -10 -37 -10 -90z"/>
<path d="M1455 4870 c-3 -5 -1 -10 4 -10 6 0 11 5 11 10 0 6 -2 10 -4 10 -3 0
-8 -4 -11 -10z"/>
<path d="M1695 4870 c-3 -5 -1 -10 4 -10 6 0 11 5 11 10 0 6 -2 10 -4 10 -3 0
-8 -4 -11 -10z"/>
<path d="M1463 4810 c0 -25 2 -35 4 -22 2 12 2 32 0 45 -2 12 -4 2 -4 -23z"/>
<path d="M1703 4810 c0 -25 2 -35 4 -22 2 12 2 32 0 45 -2 12 -4 2 -4 -23z"/>
<path d="M1456 4735 c4 -8 8 -15 10 -15 2 0 4 7 4 15 0 8 -4 15 -10 15 -5 0
-7 -7 -4 -15z"/>
<path d="M1701 4734 c0 -11 3 -14 6 -6 3 7 2 16 -1 19 -3 4 -6 -2 -5 -13z"/>
<path d="M1435 4700 c-3 -5 1 -10 9 -10 12 0 16 -17 19 -82 l3 -83 2 93 c2 74
-1 92 -12 92 -8 0 -18 -4 -21 -10z"/>
<path d="M1480 4700 c0 -6 44 -10 110 -10 l109 0 4 -82 3 -83 2 83 2 82 110 0
110 0 0 -95 c0 -57 4 -95 10 -95 6 0 10 41 10 104 l0 104 -235 1 c-150 1 -235
-3 -235 -9z"/>
<path d="M1960 4698 c0 -5 43 -8 105 -6 l105 3 0 -97 c0 -54 4 -98 9 -98 5 0
9 47 10 105 l2 106 -116 -2 c-65 -1 -115 -5 -115 -11z"/>
<path d="M2920 4699 c0 -5 47 -9 105 -9 l105 0 0 -80 c0 -47 4 -80 10 -80 6 0
10 34 10 83 l0 82 110 -3 110 -3 0 -80 c0 -46 4 -79 10 -79 6 0 10 37 10 90
l0 90 -235 -1 c-137 0 -235 -4 -235 -10z"/>
<path d="M2410 4510 c0 -5 5 -10 10 -10 6 0 10 5 10 10 0 6 -4 10 -10 10 -5 0
-10 -4 -10 -10z"/>
<path d="M2650 4510 c0 -5 5 -10 10 -10 6 0 10 5 10 10 0 6 -4 10 -10 10 -5 0
-10 -4 -10 -10z"/>
<path d="M3130 4510 c0 -5 5 -10 10 -10 6 0 10 5 10 10 0 6 -4 10 -10 10 -5 0
-10 -4 -10 -10z"/>
<path d="M3370 4510 c0 -5 5 -10 10 -10 6 0 10 5 10 10 0 6 -4 10 -10 10 -5 0
-10 -4 -10 -10z"/>
<path d="M1480 4480 c0 -6 91 -10 235 -10 129 0 235 4 235 9 0 5 -106 9 -235
9 -145 1 -235 -2 -235 -8z"/>
<path d="M1960 4480 c0 -5 5 -10 11 -10 5 0 7 5 4 10 -3 6 -8 10 -11 10 -2 0
-4 -4 -4 -10z"/>
<path d="M1990 4480 c0 -6 35 -10 85 -10 50 0 85 4 85 10 0 6 -35 10 -85 10
-50 0 -85 -4 -85 -10z"/>
<path d="M2170 4479 c0 -5 52 -9 115 -9 73 0 115 4 115 10 0 7 -41 10 -115 9
-63 0 -115 -5 -115 -10z"/>
<path d="M2410 4480 c0 -5 5 -10 10 -10 6 0 10 5 10 10 0 6 -4 10 -10 10 -5 0
-10 -4 -10 -10z"/>
<path d="M2440 4479 c0 -5 45 -9 100 -9 63 0 100 4 100 10 0 7 -36 10 -100 9
-55 -1 -100 -5 -100 -10z"/>
<path d="M2650 4480 c0 -5 5 -10 10 -10 6 0 10 5 10 10 0 6 -4 10 -10 10 -5 0
-10 -4 -10 -10z"/>
<path d="M2920 4479 c0 -5 45 -9 100 -9 63 0 100 4 100 10 0 7 -36 10 -100 9
-55 -1 -100 -5 -100 -10z"/>
<path d="M3130 4480 c0 -5 5 -10 10 -10 6 0 10 5 10 10 0 6 -4 10 -10 10 -5 0
-10 -4 -10 -10z"/>
<path d="M3160 4479 c0 -5 45 -9 100 -9 63 0 100 4 100 10 0 7 -36 10 -100 9
-55 -1 -100 -5 -100 -10z"/>
<path d="M3370 4480 c0 -5 5 -10 10 -10 6 0 10 5 10 10 0 6 -4 10 -10 10 -5 0
-10 -4 -10 -10z"/>
<path d="M3400 4479 c0 -5 27 -9 60 -9 35 0 60 4 60 10 0 6 -24 10 -60 9 -33
-1 -60 -6 -60 -10z"/>
<path d="M1698 4398 c5 -107 9 -117 11 -25 0 48 -2 87 -6 87 -5 0 -7 -28 -5
-62z"/>
<path d="M1930 4355 c0 -58 4 -105 9 -105 5 0 9 47 10 105 1 67 -2 105 -9 105
-6 0 -10 -39 -10 -105z"/>
<path d="M2170 4145 c0 -198 4 -315 10 -315 6 0 9 117 9 315 0 190 -4 315 -10
315 -5 0 -9 -125 -9 -315z"/>
<path d="M2410 4250 c0 -124 4 -210 9 -210 6 0 10 87 10 210 0 125 -4 210 -10
210 -5 0 -9 -85 -9 -210z"/>
<path d="M2650 4340 c0 -66 4 -120 9 -120 5 0 10 54 10 120 1 77 -2 120 -9
120 -6 0 -10 -44 -10 -120z"/>
<path d="M2890 4355 c0 -58 4 -105 9 -105 5 0 9 47 10 105 1 67 -2 105 -9 105
-6 0 -10 -39 -10 -105z"/>
<path d="M3130 4340 c0 -66 4 -120 9 -120 5 0 10 54 10 120 1 77 -2 120 -9
120 -6 0 -10 -44 -10 -120z"/>
<path d="M3370 4369 c0 -57 4 -88 10 -84 6 3 10 44 10 91 0 49 -4 84 -10 84
-6 0 -10 -37 -10 -91z"/>
<path d="M1690 4260 c0 -5 5 -10 10 -10 6 0 10 5 10 10 0 6 -4 10 -10 10 -5 0
-10 -4 -10 -10z"/>
<path d="M1798 4263 c23 -2 61 -2 85 0 23 2 4 4 -43 4 -47 0 -66 -2 -42 -4z"/>
<path d="M2038 4263 c23 -2 61 -2 85 0 23 2 4 4 -43 4 -47 0 -66 -2 -42 -4z"/>
<path d="M2273 4263 c26 -2 67 -2 90 0 23 2 2 3 -48 3 -49 0 -68 -1 -42 -3z"/>
<path d="M2513 4263 c26 -2 67 -2 90 0 23 2 2 3 -48 3 -49 0 -68 -1 -42 -3z"/>
<path d="M2758 4263 c23 -2 61 -2 85 0 23 2 4 4 -43 4 -47 0 -66 -2 -42 -4z"/>
<path d="M2998 4263 c23 -2 61 -2 85 0 23 2 4 4 -43 4 -47 0 -66 -2 -42 -4z"/>
<path d="M3238 4263 c23 -2 61 -2 85 0 23 2 4 4 -43 4 -47 0 -66 -2 -42 -4z"/>
<path d="M1930 4035 c0 -131 4 -205 10 -205 7 0 10 73 9 205 0 116 -5 205 -10
205 -5 0 -9 -89 -9 -205z"/>
<path d="M2890 4140 c0 -60 4 -100 10 -100 6 0 10 40 10 100 0 60 -4 100 -10
100 -6 0 -10 -40 -10 -100z"/>
<path d="M1698 4125 c-2 -47 0 -85 5 -85 4 0 7 38 7 85 0 47 -2 85 -4 85 -3 0
-6 -38 -8 -85z"/>
<path d="M2650 4125 c0 -50 4 -85 10 -85 6 0 10 35 10 85 0 50 -4 85 -10 85
-6 0 -10 -35 -10 -85z"/>
<path d="M1793 4043 c26 -2 67 -2 90 0 23 2 2 3 -48 3 -49 0 -68 -1 -42 -3z"/>
<path d="M2033 4043 c26 -2 67 -2 90 0 23 2 2 3 -48 3 -49 0 -68 -1 -42 -3z"/>
<path d="M2208 4043 c7 -3 16 -2 19 1 4 3 -2 6 -13 5 -11 0 -14 -3 -6 -6z"/>
<path d="M2278 4043 c23 -2 61 -2 85 0 23 2 4 4 -43 4 -47 0 -66 -2 -42 -4z"/>
<path d="M2513 4043 c26 -2 67 -2 90 0 23 2 2 3 -48 3 -49 0 -68 -1 -42 -3z"/>
<path d="M2728 4043 c28 -2 76 -2 105 0 28 2 5 3 -53 3 -58 0 -81 -1 -52 -3z"/>
<path d="M2993 4043 c26 -2 67 -2 90 0 23 2 2 3 -48 3 -49 0 -68 -1 -42 -3z"/>
<path d="M2410 3930 c0 -60 4 -100 10 -100 6 0 10 40 10 100 0 60 -4 100 -10
100 -6 0 -10 -40 -10 -100z"/>
<path d="M2650 3930 c0 -60 4 -100 10 -100 6 0 10 40 10 100 0 60 -4 100 -10
100 -6 0 -10 -40 -10 -100z"/>
<path d="M2890 3930 c0 -55 4 -100 9 -100 5 0 9 45 10 100 1 64 -2 100 -9 100
-6 0 -10 -37 -10 -100z"/>
<path d="M4520 5049 c-231 -43 -413 -124 -580 -257 -185 -146 -313 -329 -399
-569 -49 -137 -72 -182 -126 -253 -100 -129 -231 -209 -400 -245 -57 -12 -179
-15 -662 -15 -326 0 -593 -3 -593 -6 0 -10 24 -30 104 -87 92 -66 268 -155
378 -191 163 -53 197 -56 627 -56 l400 0 12 23 c7 12 62 99 124 192 62 94 169
257 239 363 l126 192 550 0 550 0 26 56 c45 99 92 259 108 367 26 170 17 448
-14 467 -42 26 -363 39 -470 19z m280 -424 l0 -175 -170 0 -170 0 0 175 0 175
170 0 170 0 0 -175z"/>
<path d="M4480 4623 l0 -158 134 -2 c105 -2 137 1 152 13 14 11 15 14 4 13 -8
-1 -41 -1 -72 0 l-58 1 0 70 c0 44 -4 70 -11 70 -7 0 -10 -25 -7 -72 l3 -73
-60 1 -60 1 0 96 c0 53 -3 97 -7 97 -6 0 -5 5 6 62 6 25 8 26 37 16 22 -7 37
-7 55 1 27 12 27 12 24 -71 -1 -29 3 -48 9 -48 6 0 11 6 11 14 0 10 14 16 43
19 l42 4 -42 1 c-42 2 -43 3 -43 37 0 34 1 35 41 35 22 0 49 4 59 10 23 12 30
-3 24 -61 -3 -30 -1 -40 7 -32 5 5 9 32 7 59 l-3 49 -147 3 -148 3 0 -158z"/>
<path d="M4548 4673 c12 -2 32 -2 45 0 12 2 2 4 -23 4 -25 0 -35 -2 -22 -4z"/>
<path d="M4761 4581 c-1 -39 3 -72 9 -76 6 -4 10 20 10 69 0 95 -17 101 -19 7z"/>
<path d="M5116 4812 c-5 -9 11 -465 20 -549 l5 -53 53 0 53 0 36 78 c56 124
117 268 142 340 l24 67 1 -242 0 -243 58 0 57 0 127 288 c70 158 130 295 134
305 5 15 -1 17 -44 17 -59 0 -52 10 -121 -168 -23 -56 -45 -110 -50 -120 -6
-9 -22 -48 -36 -87 -15 -38 -30 -73 -34 -77 -3 -4 -5 30 -3 75 1 45 -1 147 -5
227 l-8 145 -46 3 c-29 2 -50 -2 -56 -10 -6 -7 -32 -62 -58 -123 -26 -60 -53
-123 -60 -140 -8 -16 -30 -70 -49 -120 l-35 -90 -1 236 c0 261 3 249 -65 249
-19 0 -36 -4 -39 -8z"/>
<path d="M8336 4799 c-10 -12 -24 -38 -31 -58 -8 -20 -68 -145 -134 -279 -67
-133 -121 -245 -121 -247 0 -3 23 -5 51 -5 l51 0 41 90 42 90 91 0 92 0 6 -52
c4 -29 9 -70 12 -90 l6 -38 52 0 52 0 -38 303 c-20 166 -38 303 -38 305 0 1
-26 2 -58 2 -46 0 -61 -4 -76 -21z m69 -250 l7 -84 -71 3 c-39 2 -71 5 -71 6
0 1 15 33 34 72 18 38 44 93 57 123 l24 54 7 -45 c3 -25 9 -83 13 -129z"/>
<path d="M11002 4699 c-108 -21 -199 -117 -223 -236 -11 -55 -11 -69 5 -118
28 -90 92 -135 194 -135 86 0 122 9 122 30 0 43 -8 47 -85 42 -74 -5 -75 -4
-109 30 -42 42 -53 91 -36 165 14 65 64 126 116 143 19 7 62 10 95 8 45 -2 62
1 69 12 17 26 11 49 -12 54 -56 12 -96 13 -136 5z"/>
<path d="M11735 4705 c-5 -2 -28 -6 -49 -10 -28 -5 -51 -18 -78 -46 -32 -33
-38 -46 -38 -82 0 -56 42 -117 91 -132 11 -4 19 -10 19 -15 0 -4 9 -10 19 -13
21 -5 36 -55 27 -85 -13 -38 -90 -54 -155 -31 -35 12 -45 7 -55 -28 -11 -36
40 -56 130 -51 77 4 108 18 147 69 23 31 27 106 8 142 -8 15 -43 45 -77 68
-35 22 -66 49 -69 60 -17 53 33 85 119 76 49 -5 55 -3 60 16 10 38 7 45 -26
52 -18 4 -40 8 -48 10 -8 2 -19 2 -25 0z"/>
<path d="M5966 4679 c-101 -54 -165 -178 -153 -293 8 -77 43 -127 114 -165 63
-33 197 0 249 61 57 69 69 106 69 214 0 95 -1 102 -29 138 -16 21 -44 44 -62
52 -51 21 -142 18 -188 -7z m166 -72 c44 -41 46 -142 4 -237 -29 -66 -61 -90
-120 -90 -87 0 -121 44 -114 149 6 76 33 136 78 175 43 35 115 37 152 3z"/>
<path d="M6370 4678 c-5 -13 -26 -113 -45 -223 -20 -110 -39 -210 -42 -222 -5
-21 -2 -23 34 -23 l40 0 18 98 c10 53 26 142 35 197 14 87 17 95 23 65 7 -30
41 -129 107 -302 21 -57 22 -58 61 -58 32 0 39 4 44 23 25 114 83 452 79 458
-6 11 -61 12 -68 1 -2 -4 -17 -77 -31 -162 -15 -85 -29 -162 -32 -170 -2 -7
-24 44 -49 115 -87 253 -72 225 -121 225 -36 0 -45 -4 -53 -22z"/>
<path d="M6848 4694 c-19 -6 -19 -5 -57 -214 -16 -91 -34 -185 -40 -210 -5
-24 -7 -47 -5 -50 3 -3 56 -5 118 -5 102 0 117 3 169 29 98 47 145 130 146
251 1 85 -18 127 -78 170 -39 27 -49 29 -139 32 -53 1 -104 0 -114 -3z m198
-84 c39 -25 48 -47 47 -120 -2 -133 -79 -210 -210 -210 -48 0 -49 3 -34 73 6
23 20 95 32 160 l22 117 55 0 c38 0 65 -6 88 -20z"/>
<path d="M7307 4693 c-6 -12 -23 -93 -47 -223 -18 -101 -26 -140 -46 -237 -4
-23 -4 -23 136 -23 131 0 140 1 140 19 0 11 3 26 6 35 5 14 -5 16 -77 16 -46
0 -89 4 -96 8 -9 6 -9 23 0 75 l11 67 88 0 c64 0 88 3 88 13 0 6 3 22 6 35 6
22 5 22 -81 22 l-87 0 6 28 c3 15 8 44 12 65 l6 37 93 0 93 0 4 35 4 35 -127
0 c-70 0 -130 -3 -132 -7z"/>
<path d="M7669 4693 c-12 -3 -21 -30 -33 -101 -10 -53 -20 -104 -23 -112 -2
-8 -11 -53 -20 -100 -8 -47 -18 -104 -22 -127 l-8 -43 41 0 41 0 19 100 18
100 36 0 c58 0 64 -9 75 -109 l11 -91 43 0 c37 0 44 3 39 18 -2 9 -7 47 -11
84 -4 37 -15 83 -24 102 -18 34 -18 36 0 41 10 3 32 22 48 41 25 28 31 44 31
80 0 59 -12 79 -60 104 -30 15 -57 20 -112 19 -40 -1 -80 -3 -89 -6z m148 -68
c49 -14 35 -113 -20 -136 -27 -12 -85 -14 -96 -4 -1 2 3 35 9 74 15 82 27 89
107 66z"/>
<path d="M8714 4692 c-13 -8 -22 -48 -64 -272 -17 -91 -33 -175 -36 -188 -4
-22 -2 -23 38 -20 42 3 43 4 50 48 4 25 13 69 19 98 l10 52 45 0 c53 0 58 -8
69 -122 l7 -78 45 0 c37 0 44 3 39 18 -2 9 -8 49 -12 87 -6 70 -17 103 -38
118 -8 6 -6 10 4 14 8 3 32 23 53 43 31 32 37 44 37 79 0 92 -54 131 -183 131
-39 0 -77 -4 -83 -8z m143 -62 c7 0 20 -11 29 -25 15 -22 15 -31 4 -64 -15
-45 -42 -61 -104 -61 l-44 0 8 38 c4 20 11 54 14 74 7 38 24 50 61 42 11 -2
26 -4 32 -4z"/>
<path d="M9194 4680 c-54 -25 -113 -86 -144 -146 -18 -38 -24 -65 -24 -119 -1
-99 34 -158 113 -191 35 -15 126 -19 180 -8 29 6 32 10 29 37 l-3 31 -82 1
c-72 0 -84 3 -107 24 -35 33 -50 83 -42 144 8 60 24 93 63 129 40 38 79 50
153 46 63 -3 65 -2 74 25 14 39 -2 47 -94 46 -53 0 -87 -5 -116 -19z"/>
<path d="M9500 4678 c-5 -13 -25 -111 -45 -218 -20 -107 -38 -207 -41 -222 -5
-27 -4 -28 35 -28 23 0 41 2 41 4 0 3 6 35 14 73 8 37 17 85 20 106 l7 37 94
0 c111 0 106 9 76 -132 l-18 -88 42 0 42 0 33 178 c18 97 38 208 45 245 l12
68 -41 -3 -41 -3 -19 -97 -18 -98 -94 0 c-109 0 -104 -7 -79 110 8 40 13 76 9
81 -3 5 -19 9 -35 9 -21 0 -32 -6 -39 -22z"/>
<path d="M9955 4688 c-6 -18 -85 -447 -85 -464 0 -18 80 -20 80 -1 0 6 20 113
44 237 24 124 42 228 39 233 -7 12 -73 8 -78 -5z"/>
<path d="M10092 4680 c-6 -11 -12 -29 -12 -40 0 -18 7 -20 69 -20 l68 0 -13
-42 c-7 -24 -24 -108 -39 -188 -15 -80 -29 -153 -31 -162 -5 -15 2 -18 38 -18
l44 0 33 183 c18 100 35 192 38 204 4 20 12 22 71 25 66 3 66 3 73 35 3 18 4
35 1 38 -3 3 -78 5 -166 5 -150 0 -162 -1 -174 -20z"/>
<path d="M10495 4688 c-3 -7 -24 -118 -48 -245 l-43 -233 137 0 c133 0 137 1
143 23 12 46 10 47 -76 47 -46 0 -88 4 -94 8 -9 5 -9 24 0 72 l12 65 86 3 c79
3 86 5 92 25 12 46 10 47 -80 47 -85 0 -86 0 -80 23 3 12 9 41 12 65 l7 42 92
0 93 0 4 30 c3 17 2 32 0 35 -3 3 -61 5 -129 5 -90 0 -125 -3 -128 -12z"/>
<path d="M11196 4669 c-3 -17 -6 -35 -6 -40 0 -5 29 -9 65 -9 36 0 65 -1 65
-2 0 -2 -7 -37 -15 -78 -8 -41 -22 -113 -30 -160 -9 -47 -19 -104 -24 -127
l-8 -43 41 0 42 0 33 183 c18 100 35 192 38 205 5 20 11 22 74 22 59 0 69 3
69 18 0 9 3 27 6 40 l6 22 -175 0 -174 0 -7 -31z"/>
<path d="M755 4297 c-5 -6 -17 -25 -25 -41 -10 -20 -35 -38 -75 -57 -71 -33
-99 -61 -113 -113 -9 -30 -8 -46 5 -77 10 -26 13 -53 9 -79 -5 -32 -3 -40 13
-45 10 -3 22 -17 25 -30 9 -34 47 -69 57 -53 5 8 11 -4 15 -30 l7 -42 56 6
c31 3 82 15 114 27 50 17 60 18 68 6 5 -8 7 -22 5 -31 -2 -11 1 -15 10 -11 8
3 14 11 14 19 0 8 4 14 9 14 5 0 11 8 14 19 3 13 17 19 51 23 55 7 66 15 123
93 53 73 87 158 79 200 -11 54 -76 135 -146 181 -42 28 -87 33 -158 16 -39 -9
-59 -7 -127 12 -11 3 -24 0 -30 -7z"/>
<path d="M3718 3998 c-41 -62 -110 -167 -153 -233 -42 -66 -83 -129 -91 -140
-37 -54 -86 -128 -134 -202 l-53 -83 -1463 0 c-956 0 -1464 -3 -1464 -10 0
-16 2912 -14 2931 2 18 15 69 84 69 93 0 3 8 18 19 33 10 15 42 63 71 107 29
44 57 82 61 83 5 2 9 8 9 13 0 5 30 55 67 112 36 56 95 147 131 202 35 55 65
101 67 103 1 1 1808 2 4016 2 2208 0 4025 3 4037 7 18 4 20 8 10 14 -7 5
-1822 9 -4034 9 l-4021 0 -75 -112z"/>
<path d="M3822 4053 c-6 -2 -50 -62 -95 -131 -46 -70 -159 -241 -250 -379
l-167 -253 -1480 0 c-980 0 -1480 -3 -1480 -10 0 -7 503 -10 1488 -10 l1488 0
100 153 c56 83 158 240 228 347 71 107 138 210 149 227 l22 33 4018 0 c2350 0
4017 4 4017 9 0 5 -7 12 -16 15 -19 7 -8003 7 -8022 -1z"/>
<path d="M1311 3817 c-24 -12 -33 -18 -135 -106 -33 -28 -66 -51 -75 -52 -11
0 -12 -2 -3 -6 10 -4 9 -10 -6 -27 -34 -38 -34 -55 -2 -85 21 -19 32 -40 36
-67 l6 -39 -22 33 c-12 17 -30 32 -39 32 -25 0 -41 20 -41 52 0 33 24 84 42
91 19 7 -4 14 -89 27 -54 9 -73 16 -73 27 0 10 -6 13 -16 9 -9 -3 -20 -6 -25
-6 -5 0 -4 -9 3 -20 20 -31 -1 -54 -50 -58 -33 -2 -49 3 -77 24 -35 26 -37 27
-89 14 -40 -9 -57 -19 -70 -41 -15 -26 -15 -31 -1 -66 22 -51 15 -63 -31 -53
-20 5 -44 5 -54 2 -22 -9 -62 -57 -83 -99 l-15 -33 961 0 962 1 -100 33 c-130
42 -286 119 -369 181 -15 11 -55 41 -89 66 -57 43 -68 47 -137 54 -147 14
-125 6 -220 83 -55 45 -62 47 -99 29z m-522 -286 c-7 -21 -7 -36 0 -50 18 -33
13 -46 -9 -26 -22 20 -26 55 -10 86 17 30 30 23 19 -10z"/>
<path d="M3904 3695 c-8 -20 -12 -41 -8 -47 4 -6 3 -8 -3 -5 -6 4 -14 -5 -18
-21 -3 -15 -13 -40 -20 -57 -18 -40 -73 -186 -77 -205 -2 -8 -7 -18 -13 -22
-6 -5 -3 -8 6 -8 17 0 35 34 44 79 2 14 9 29 15 35 5 5 10 18 10 27 0 10 5 21
12 25 7 4 8 3 4 -4 -4 -7 -1 -12 8 -12 19 0 20 4 4 30 -10 16 -9 25 4 48 10
16 15 32 11 36 -3 3 -1 6 5 6 6 0 13 14 17 30 5 23 10 28 19 21 7 -6 16 -8 19
-4 4 3 7 -3 7 -15 0 -12 9 -44 20 -71 11 -28 17 -57 14 -66 -6 -15 11 -22 19
-7 2 4 2 2 1 -5 -2 -7 4 -27 12 -45 34 -75 53 -103 72 -106 19 -3 20 -1 10 35
-9 36 -23 70 -53 138 -7 17 -16 43 -20 59 -5 23 -8 27 -16 15 -7 -11 -9 -10
-10 6 -1 11 -2 29 -3 40 0 11 -6 19 -13 18 -7 -2 -10 3 -7 11 8 20 -23 76 -42
76 -8 0 -22 -16 -30 -35z m63 -87 c-3 -8 -6 -5 -6 6 -1 11 2 17 5 13 3 -3 4
-12 1 -19z"/>
<path d="M4185 3533 c0 -148 3 -197 13 -200 9 -4 12 31 12 152 0 126 3 159 15
171 14 15 20 8 16 -18 0 -5 4 -8 9 -8 6 0 10 -6 10 -12 0 -7 14 -29 30 -48 16
-19 34 -40 40 -47 5 -7 10 -15 10 -19 0 -3 15 -25 32 -48 18 -22 36 -45 40
-51 43 -57 60 -72 83 -72 22 0 24 3 19 26 -4 14 -14 31 -23 38 -34 26 -41 34
-36 43 3 6 -1 7 -9 4 -9 -3 -16 -1 -16 6 0 6 -11 26 -25 44 -14 18 -25 38 -25
43 0 6 -7 14 -16 17 -8 3 -12 10 -9 16 3 5 -1 10 -9 10 -9 0 -18 11 -22 25 -7
28 -14 31 -33 13 -11 -11 -11 -9 -1 11 11 21 10 23 -5 18 -12 -5 -16 -2 -13
10 3 18 -24 53 -42 53 -5 0 -10 5 -10 10 0 6 -8 10 -17 10 -17 0 -18 -16 -18
-197z m205 -64 c0 -6 -4 -7 -10 -4 -5 3 -10 11 -10 16 0 6 5 7 10 4 6 -3 10
-11 10 -16z"/>
<path d="M4480 3645 c0 -47 3 -84 8 -82 4 3 6 -16 5 -41 l-2 -47 9 42 c5 24
10 80 12 125 3 72 1 83 -14 86 -16 3 -18 -6 -18 -83z"/>
<path d="M4638 3548 c3 -192 9 -218 53 -218 16 0 17 16 15 198 l-1 197 -35 3
-35 3 3 -183z"/>
<path d="M4725 3720 c-3 -5 -1 -10 4 -10 6 0 11 5 11 10 0 6 -2 10 -4 10 -3 0
-8 -4 -11 -10z"/>
<path d="M4773 3723 c15 -2 39 -2 55 0 15 2 2 4 -28 4 -30 0 -43 -2 -27 -4z"/>
<path d="M5333 3704 c-15 -40 -15 -290 0 -334 8 -24 18 -35 32 -35 19 0 20 7
22 198 2 169 1 197 -12 197 -8 0 -15 -8 -16 -17 0 -16 -1 -16 -8 1 -6 17 -9
16 -18 -10z m44 -241 c-3 -10 -5 -4 -5 12 0 17 2 24 5 18 2 -7 2 -21 0 -30z
m0 -85 c-3 -7 -5 -2 -5 12 0 14 2 19 5 13 2 -7 2 -19 0 -25z m-20 -20 c-3 -8
-6 -5 -6 6 -1 11 2 17 5 13 3 -3 4 -12 1 -19z"/>
<path d="M5400 3720 c0 -5 5 -10 10 -10 6 0 10 5 10 10 0 6 -4 10 -10 10 -5 0
-10 -4 -10 -10z"/>
<path d="M5485 3710 c33 -10 53 -19 45 -20 -10 0 -6 -8 13 -21 15 -11 27 -28
26 -37 0 -14 -2 -13 -9 3 -6 15 -9 9 -8 -25 0 -37 1 -41 8 -20 l8 25 1 -23 c1
-16 -6 -26 -19 -29 -11 -3 -20 -11 -20 -18 0 -8 -8 -16 -17 -18 -10 -2 -3 -3
15 -1 19 2 45 14 58 28 20 20 25 33 23 70 -2 25 -5 50 -8 55 -11 16 -86 43
-131 47 l-45 3 60 -19z m102 -36 c-3 -3 -12 -4 -19 -1 -8 3 -5 6 6 6 11 1 17
-2 13 -5z"/>
<path d="M5708 3723 c9 -3 12 -50 12 -187 0 -186 4 -206 40 -206 13 0 14 13
10 87 -4 76 -3 87 13 91 21 5 23 22 2 22 -17 0 -17 2 -15 118 l1 82 -38 -1
c-21 0 -32 -3 -25 -6z"/>
<path d="M5780 3720 c0 -5 5 -10 10 -10 6 0 10 5 10 10 0 6 -4 10 -10 10 -5 0
-10 -4 -10 -10z"/>
<path d="M5821 3726 c11 -9 69 -15 64 -6 -3 6 -20 10 -37 10 -17 0 -29 -2 -27
-4z"/>
<path d="M6260 3715 c-7 -8 -16 -12 -20 -10 -16 10 -91 -27 -86 -41 3 -8 0
-11 -8 -8 -14 6 -46 -36 -46 -61 0 -8 -4 -15 -10 -15 -5 0 -10 -22 -10 -50 0
-35 4 -48 13 -45 8 4 12 -6 13 -30 0 -26 9 -42 35 -65 19 -17 45 -33 59 -37
14 -3 27 -9 30 -13 8 -11 90 -19 90 -9 0 5 -13 10 -30 10 -35 2 -36 2 -75 18
-23 10 -26 14 -15 21 13 8 12 10 -3 10 -10 0 -20 7 -24 16 -4 11 -8 12 -13 4
-4 -6 -7 1 -7 17 0 15 -1 64 -3 109 l-4 81 36 37 c20 20 46 39 59 41 12 3 27
9 33 15 15 15 103 12 137 -5 16 -9 35 -13 41 -9 18 11 -63 34 -123 34 -38 0
-61 -5 -69 -15z"/>
<path d="M6678 3547 c3 -164 5 -184 23 -202 14 -15 19 -16 19 -5 0 13 1 13 10
0 5 -9 9 60 8 188 l-1 202 -23 0 c-13 0 -24 -6 -24 -12 0 -10 -2 -10 -8 -1 -4
6 -6 -71 -4 -170z m42 133 c0 -5 -4 -10 -10 -10 -5 0 -10 5 -10 10 0 6 5 10
10 10 6 0 10 -4 10 -10z"/>
<path d="M6750 3720 c0 -5 5 -10 10 -10 6 0 10 5 10 10 0 6 -4 10 -10 10 -5 0
-10 -4 -10 -10z"/>
<path d="M6795 3723 c51 -11 93 -36 87 -51 -4 -11 -1 -14 9 -10 11 4 13 -4 11
-43 -2 -27 -8 -49 -12 -49 -5 0 -11 -9 -15 -19 -3 -11 -14 -22 -23 -25 -9 -2
-3 -3 13 -1 17 2 36 4 43 4 7 1 10 6 7 11 -3 6 0 10 8 10 18 0 37 42 37 81 0
22 -6 32 -19 36 -12 3 -17 11 -14 19 4 10 0 12 -11 8 -9 -3 -16 -2 -16 3 0 12
-69 33 -101 32 -20 -1 -21 -2 -4 -6z"/>
<path d="M7064 3532 l-1 -198 51 -1 c28 0 41 2 29 4 -22 4 -23 8 -23 110 0 96
2 105 20 110 25 7 26 23 1 23 -16 0 -18 8 -18 65 1 56 4 65 19 65 40 0 15 15
-30 18 l-47 3 -1 -199z m23 126 c-3 -7 -5 -2 -5 12 0 14 2 19 5 13 2 -7 2 -19
0 -25z m0 -270 c-3 -8 -6 -5 -6 6 -1 11 2 17 5 13 3 -3 4 -12 1 -19z"/>
<path d="M7208 3723 c23 -2 59 -2 80 0 20 2 1 4 -43 4 -44 0 -61 -2 -37 -4z"/>
<path d="M7418 3546 c3 -160 5 -183 22 -200 34 -35 39 -13 39 189 l0 194 -32
-1 -32 -1 3 -181z"/>
<path d="M7490 3720 c0 -5 5 -10 10 -10 6 0 10 5 10 10 0 6 -4 10 -10 10 -5 0
-10 -4 -10 -10z"/>
<path d="M7520 3719 c0 -5 5 -7 10 -4 6 3 10 8 10 11 0 2 -4 4 -10 4 -5 0 -10
-5 -10 -11z"/>
<path d="M7575 3716 c106 -47 91 -183 -22 -198 -21 -3 -21 -4 13 -58 19 -30
40 -57 46 -59 6 -2 8 1 3 9 -5 8 -4 11 3 6 6 -4 8 -14 5 -22 -13 -34 83 -84
102 -54 4 6 1 9 -7 8 -8 -2 -12 4 -10 16 3 14 -1 17 -13 12 -14 -5 -16 -2 -12
14 3 11 2 18 -3 15 -12 -7 -45 27 -61 63 -7 17 -17 32 -21 32 -4 0 -5 7 -2 15
3 8 9 14 12 13 32 -4 62 4 62 17 0 7 7 18 15 23 9 4 17 18 20 29 4 25 -15 83
-28 83 -4 0 -5 5 -2 10 4 7 -3 9 -22 5 -22 -5 -25 -4 -13 5 13 10 13 11 0 9
-8 -1 -28 3 -43 9 -39 16 -59 14 -22 -2z"/>
<path d="M7783 3723 c15 -2 37 -2 50 0 12 2 0 4 -28 4 -27 0 -38 -2 -22 -4z"/>
<path d="M7878 3723 c14 -3 22 -12 22 -26 0 -12 2 -92 3 -178 2 -161 9 -189
46 -189 14 0 15 19 10 197 -3 109 -6 199 -7 201 -1 1 -23 1 -49 1 -27 -1 -38
-4 -25 -6z"/>
<path d="M7970 3721 c0 -5 21 -6 48 -4 70 7 74 11 10 12 -32 1 -58 -3 -58 -8z"/>
<path d="M8098 3723 c7 -3 16 -2 19 1 4 3 -2 6 -13 5 -11 0 -14 -3 -6 -6z"/>
<path d="M8181 3567 c-3 -140 -1 -166 13 -180 11 -10 13 -18 5 -22 -6 -5 -4
-12 8 -21 39 -29 41 -20 42 144 1 178 -7 229 -32 224 -9 -2 -17 2 -17 8 0 5
-3 10 -7 10 -5 0 -10 -73 -12 -163z m36 -19 c-2 -18 -4 -4 -4 32 0 36 2 50 4
33 2 -18 2 -48 0 -65z m0 -120 c-3 -7 -5 -2 -5 12 0 14 2 19 5 13 2 -7 2 -19
0 -25z"/>
<path d="M8374 3713 c2 -10 8 -29 11 -42 4 -13 3 -21 -1 -18 -5 3 -9 -69 -9
-159 l0 -164 33 0 33 0 -2 200 -1 200 -35 0 c-28 0 -33 -3 -29 -17z"/>
<path d="M8450 3720 c0 -5 5 -10 10 -10 6 0 10 5 10 10 0 6 -4 10 -10 10 -5 0
-10 -4 -10 -10z"/>
<path d="M8508 3723 c18 -2 45 -2 60 0 15 2 0 4 -33 4 -33 0 -45 -2 -27 -4z"/>
<path d="M8780 3712 c-55 -38 -65 -57 -61 -129 1 -17 6 -20 24 -16 17 4 19 2
8 -5 -11 -8 -6 -14 24 -26 20 -9 43 -16 49 -16 6 0 23 -6 37 -14 25 -13 79
-30 89 -28 5 0 6 -52 2 -89 -5 -40 -147 -63 -187 -29 -8 6 -20 10 -27 8 -26
-9 79 -41 127 -38 78 3 85 4 85 11 0 4 9 9 21 12 14 4 18 10 13 18 -5 8 -2 11
8 7 12 -5 15 4 14 49 -1 48 -4 57 -24 64 -26 10 -30 21 -4 13 16 -5 16 -5 0 6
-24 15 -108 40 -136 40 -13 0 -20 4 -17 10 3 6 -3 10 -15 10 -28 0 -69 83 -44
88 9 2 13 10 10 17 -2 7 2 16 10 19 8 3 14 0 14 -7 0 -7 4 -6 10 3 10 17 112
21 143 6 10 -5 17 -4 17 2 0 12 -74 30 -125 30 -22 0 -51 -7 -65 -16z"/>
<path d="M9295 3707 c11 -17 13 -31 7 -48 -5 -13 -9 -93 -10 -176 -2 -147 -1
-153 18 -153 17 0 20 7 20 39 0 22 -5 43 -11 46 -10 7 -12 225 -1 253 8 22 22
13 22 -14 0 -23 2 -25 15 -14 13 11 14 10 9 -4 -3 -9 -1 -16 5 -16 6 0 11 -7
11 -15 0 -16 15 -21 23 -7 2 4 2 1 0 -7 -4 -15 37 -81 50 -81 4 0 7 -5 7 -10
0 -18 43 -70 52 -64 5 3 8 -1 6 -9 -5 -24 69 -97 98 -97 24 0 33 15 13 22 -6
2 -12 33 -12 75 -1 39 1 69 6 66 4 -2 7 51 7 119 0 73 -4 117 -9 109 -7 -11
-9 -11 -14 0 -3 8 -6 -59 -6 -148 -1 -138 -3 -163 -16 -163 -8 0 -15 6 -15 14
0 8 -7 16 -15 20 -8 3 -15 13 -15 22 0 10 -5 14 -15 11 -8 -4 -17 -1 -21 5 -4
7 -3 8 4 4 18 -11 14 8 -6 30 -10 10 -28 36 -41 57 -13 21 -33 47 -44 58 -12
10 -17 19 -12 19 5 0 -1 7 -13 16 -14 9 -21 22 -18 31 3 8 1 11 -4 8 -6 -3
-10 -1 -10 4 0 6 -3 10 -7 10 -5 -1 -10 0 -13 1 -3 1 -18 4 -33 6 -27 5 -28 4
-12 -19z m322 -129 c-3 -8 -6 -5 -6 6 -1 11 2 17 5 13 3 -3 4 -12 1 -19z m-17
-218 c0 -5 -2 -10 -4 -10 -3 0 -8 5 -11 10 -3 6 -1 10 4 10 6 0 11 -4 11 -10z"/>
<path d="M9758 3548 c3 -150 6 -186 19 -200 21 -24 37 -23 30 2 -3 11 -1 22 4
26 5 3 8 77 6 164 -2 146 -4 160 -22 174 -11 9 -24 16 -30 16 -6 0 -9 -65 -7
-182z"/>
<path d="M10080 3722 c0 -5 -17 -14 -38 -20 -44 -13 -88 -52 -59 -52 10 0 17
5 17 12 0 8 4 7 13 -3 6 -8 11 -13 10 -11 -4 9 43 52 57 52 9 0 17 7 17 15 0
8 -4 15 -9 15 -4 0 -8 -4 -8 -8z"/>
<path d="M10110 3721 c0 -9 90 -5 99 4 2 3 -19 5 -47 5 -29 0 -52 -4 -52 -9z"/>
<path d="M10775 3529 l0 -199 33 0 32 0 0 160 c0 121 -3 160 -12 160 -10 0
-10 2 0 8 7 5 10 19 8 33 -3 13 -5 26 -5 29 -1 3 -6 -2 -11 -10 -9 -13 -10
-13 -10 0 0 9 -8 16 -17 17 -17 1 -18 -14 -18 -198z"/>
<path d="M11075 3723 c22 -2 44 -8 49 -13 5 -5 10 -85 10 -178 1 -144 3 -171
18 -185 37 -38 43 -16 40 156 -1 89 -4 176 -7 192 l-5 30 -72 1 c-40 1 -55 -1
-33 -3z m102 -145 c-3 -7 -5 -2 -5 12 0 14 2 19 5 13 2 -7 2 -19 0 -25z m0
-120 c-3 -7 -5 -2 -5 12 0 14 2 19 5 13 2 -7 2 -19 0 -25z m-20 -80 c-3 -8 -6
-5 -6 6 -1 11 2 17 5 13 3 -3 4 -12 1 -19z"/>
<path d="M11196 3720 c7 -7 19 -7 35 -1 23 9 22 10 -10 10 -24 1 -32 -2 -25
-9z"/>
<path d="M11278 3723 c6 -2 18 -2 25 0 6 3 1 5 -13 5 -14 0 -19 -2 -12 -5z"/>
<path d="M11410 3721 c0 -5 6 -11 13 -14 8 -3 9 -8 2 -18 -7 -9 -9 -73 -5
-177 4 -130 8 -165 20 -172 39 -25 40 -17 40 190 l-1 200 -35 0 c-19 0 -34 -4
-34 -9z"/>
<path d="M11490 3720 c0 -5 5 -10 10 -10 6 0 10 5 10 10 0 6 -4 10 -10 10 -5
0 -10 -4 -10 -10z"/>
<path d="M11570 3721 c62 -7 124 -34 144 -62 7 -10 16 -16 21 -11 5 4 5 1 1
-6 -4 -7 0 -24 9 -38 21 -33 16 -152 -8 -186 -36 -51 -47 -60 -89 -73 -24 -8
-34 -14 -22 -14 64 -2 174 74 174 120 0 10 5 21 10 24 6 3 10 26 10 51 0 41
-29 104 -64 140 -33 33 -128 64 -191 62 l-50 -1 55 -6z"/>
<path d="M4865 3709 c-4 -5 3 -9 13 -9 11 0 25 -7 32 -15 7 -8 21 -15 32 -15
11 0 16 -5 13 -10 -4 -6 0 -22 9 -35 9 -14 18 -54 21 -90 7 -99 -29 -161 -112
-191 -25 -8 -31 -13 -17 -14 21 0 74 18 122 42 12 6 22 17 22 25 0 7 9 22 21
34 15 15 23 38 26 80 5 52 3 64 -21 99 -14 22 -31 40 -38 40 -6 0 -8 3 -5 7 9
9 -24 31 -72 48 -25 8 -43 10 -46 4z m145 -109 c0 -5 -2 -10 -4 -10 -3 0 -8 5
-11 10 -3 6 -1 10 4 10 6 0 11 -4 11 -10z m1 -113 c-10 -9 -11 -8 -5 6 3 10 9
15 12 12 3 -3 0 -11 -7 -18z m-14 -49 c-3 -8 -6 -5 -6 6 -1 11 2 17 5 13 3 -3
4 -12 1 -19z"/>
<path d="M5900 3701 c0 -5 7 -14 15 -21 8 -6 14 -15 13 -18 -1 -4 2 -15 6 -25
21 -46 -31 -116 -86 -118 -18 0 -27 -3 -20 -6 6 -2 12 -11 12 -19 0 -9 4 -12
10 -9 5 3 8 0 5 -7 -3 -7 8 -29 25 -48 16 -19 30 -38 30 -42 0 -18 57 -58 82
-58 16 0 28 3 28 6 0 3 -21 25 -46 50 -27 27 -43 51 -40 60 5 13 -6 19 -27 15
-5 -1 -5 3 -2 9 4 6 -1 17 -11 24 -17 13 -17 14 2 24 20 11 25 12 49 12 9 0
20 11 25 24 5 13 14 27 19 31 20 12 12 55 -11 65 -13 5 -17 9 -9 9 11 1 10 5
-5 16 -10 8 -14 15 -9 15 6 0 3 5 -5 10 -19 12 -50 13 -50 1z m50 -138 c-11
-17 -11 -17 -6 0 3 10 6 24 7 30 0 9 2 9 5 0 3 -7 0 -20 -6 -30z"/>
<path d="M10258 3703 c7 -3 16 -2 19 1 4 3 -2 6 -13 5 -11 0 -14 -3 -6 -6z"/>
<path d="M6459 3689 c-12 -8 -11 -12 3 -23 10 -7 26 -32 37 -55 10 -24 21 -37
23 -29 3 7 3 -14 1 -47 -3 -36 -14 -79 -29 -108 -13 -27 -21 -54 -17 -59 3 -7
1 -8 -6 -4 -6 4 -23 1 -36 -8 -13 -9 -32 -16 -42 -17 -11 0 -13 -3 -6 -6 19
-7 113 27 113 41 0 7 11 18 24 24 26 11 55 85 51 127 -4 43 -17 85 -25 80 -7
-5 -25 42 -22 58 1 4 -7 7 -19 7 -11 0 -18 4 -15 9 8 13 -18 21 -35 10z m91
-245 c0 -8 -4 -14 -8 -14 -4 0 -8 9 -8 19 0 11 4 17 8 15 4 -3 8 -12 8 -20z"/>
<path d="M9936 3610 c-45 -102 -2 -213 103 -264 40 -19 91 -21 91 -4 0 9 3 9
12 0 16 -16 57 -15 92 3 37 20 56 19 72 -2 11 -15 13 -15 14 -3 0 13 2 13 9 1
6 -9 8 20 7 77 -1 51 -6 95 -10 99 -9 9 -56 16 -56 8 0 -3 10 -10 23 -15 17
-7 18 -9 5 -9 -15 -1 -18 -10 -18 -50 0 -62 -7 -81 -30 -81 -11 0 -22 -5 -25
-10 -5 -7 -11 -8 -19 -1 -6 5 -27 9 -46 9 -51 -2 -90 5 -90 15 0 5 -7 7 -15 4
-8 -4 -17 -2 -20 3 -3 4 1 11 7 13 8 3 6 6 -5 6 -22 1 -57 78 -57 126 0 18 7
49 15 68 8 20 15 38 15 39 0 2 -13 3 -29 4 -24 1 -31 -5 -45 -36z m24 -155 c0
-8 -2 -15 -4 -15 -2 0 -6 7 -10 15 -3 8 -1 15 4 15 6 0 10 -7 10 -15z"/>
<path d="M7186 3569 c3 -5 26 -9 51 -9 26 0 44 2 42 4 -9 8 -98 13 -93 5z"/>
<path d="M8450 3570 c0 -5 5 -10 10 -10 6 0 10 5 10 10 0 6 -4 10 -10 10 -5 0
-10 -4 -10 -10z"/>
<path d="M8498 3563 c12 -2 32 -2 45 0 12 2 2 4 -23 4 -25 0 -35 -2 -22 -4z"/>
<path d="M10180 3530 c36 -12 70 -12 70 0 0 6 -21 10 -47 9 -39 -1 -43 -2 -23
-9z"/>
<path d="M5400 3520 c0 -5 5 -10 10 -10 6 0 10 5 10 10 0 6 -4 10 -10 10 -5 0
-10 -4 -10 -10z"/>
<path d="M5440 3520 c0 -5 5 -10 11 -10 5 0 7 5 4 10 -3 6 -8 10 -11 10 -2 0
-4 -4 -4 -10z"/>
<path d="M6750 3520 c0 -5 5 -10 10 -10 6 0 10 5 10 10 0 6 -4 10 -10 10 -5 0
-10 -4 -10 -10z"/>
<path d="M6790 3520 c0 -5 7 -10 16 -10 8 0 12 5 9 10 -3 6 -10 10 -16 10 -5
0 -9 -4 -9 -10z"/>
<path d="M7490 3520 c0 -5 5 -10 10 -10 6 0 10 5 10 10 0 6 -4 10 -10 10 -5 0
-10 -4 -10 -10z"/>
<path d="M3930 3490 c0 -5 5 -10 11 -10 5 0 7 5 4 10 -3 6 -8 10 -11 10 -2 0
-4 -4 -4 -10z"/>
<path d="M4491 3424 c0 -11 3 -14 6 -6 3 7 2 16 -1 19 -3 4 -6 -2 -5 -13z"/>
<path d="M10440 3350 c0 -16 6 -20 33 -19 17 0 26 3 20 6 -7 2 -13 9 -13 15 0
6 7 8 15 4 8 -3 15 -1 15 4 0 6 -16 10 -35 10 -28 0 -35 -4 -35 -20z"/>
<path d="M11882 3353 c2 -11 14 -19 31 -21 22 -3 27 1 27 17 0 17 -6 21 -31
21 -24 0 -30 -4 -27 -17z"/>
<path d="M7233 3333 c20 -2 54 -2 75 0 20 2 3 4 -38 4 -41 0 -58 -2 -37 -4z"/>
<path d="M8500 3334 c58 -8 150 -8 150 -1 0 4 -39 6 -87 6 -49 -1 -77 -3 -63
-5z"/>
<path d="M10908 3333 c17 -2 47 -2 65 0 17 2 3 4 -33 4 -36 0 -50 -2 -32 -4z"/>
<path d="M6592 3021 c2 -8 9 -16 17 -19 8 -3 11 0 7 7 -4 6 -2 11 4 11 7 0 10
-7 6 -15 -3 -9 5 -21 22 -32 15 -10 37 -28 50 -41 13 -13 29 -21 37 -18 33 12
104 72 100 83 -2 7 2 10 8 7 7 -2 21 2 32 10 18 14 8 15 -105 16 -69 1 -138 3
-153 4 -19 1 -27 -3 -25 -13z"/>
<path d="M2770 3019 c-55 -22 -110 -94 -110 -144 0 -15 -4 -24 -10 -20 -12 8
-13 -29 -1 -53 5 -9 16 -34 25 -55 9 -21 21 -35 26 -32 5 3 7 0 4 -8 -6 -18
52 -56 104 -68 52 -12 137 6 159 35 10 12 24 21 31 18 7 -2 15 9 18 27 4 17
10 28 14 26 10 -6 29 95 21 110 -2 5 -6 23 -8 40 -2 16 -8 32 -13 33 -6 2 -10
9 -10 16 0 7 -9 21 -21 32 -17 16 -22 16 -30 4 -8 -12 -9 -10 -5 5 5 17 -1 23
-27 33 -40 14 -132 15 -167 1z m43 -74 c25 -26 42 -65 27 -65 -4 0 -11 -7 -14
-16 -9 -23 22 -56 46 -48 14 4 16 2 11 -13 -7 -17 -6 -17 11 0 9 9 25 17 34
17 15 1 14 3 -2 15 -11 8 -15 15 -9 15 6 0 16 -7 23 -15 7 -8 9 -15 4 -15 -5
0 4 -12 19 -26 17 -16 27 -34 25 -47 -3 -23 -56 -57 -77 -49 -9 3 -12 1 -7 -6
4 -7 2 -12 -3 -12 -6 0 -11 7 -11 16 0 16 -6 16 -55 -1 -13 -4 -11 -1 5 9 24
14 24 15 5 22 -33 11 -103 92 -110 127 -4 18 -8 39 -11 48 -5 19 32 69 50 69
7 0 25 -11 39 -25z m-103 -9 c0 -3 -4 -8 -10 -11 -5 -3 -10 -1 -10 4 0 6 5 11
10 11 6 0 10 -2 10 -4z"/>
<path d="M6522 2887 c0 -70 3 -129 8 -132 4 -2 42 23 84 56 65 50 75 63 65 75
-7 8 -18 13 -26 10 -8 -3 -12 -2 -9 2 6 9 -3 22 -26 40 -12 10 -22 11 -36 3
-14 -7 -19 -7 -19 4 0 8 7 11 16 7 14 -5 14 -3 2 11 -7 9 -18 17 -24 17 -5 0
-15 7 -22 16 -9 13 -12 -9 -13 -109z"/>
<path d="M6904 2975 c-4 -8 -13 -15 -21 -15 -9 0 -13 -6 -10 -14 4 -9 1 -13
-7 -10 -7 2 -22 -4 -35 -15 -12 -11 -32 -26 -43 -33 -21 -14 -20 -15 27 -49
26 -19 52 -33 57 -31 5 1 7 -1 4 -6 -2 -4 0 -14 5 -22 8 -13 10 -13 18 -1 7
11 10 9 16 -8 14 -44 23 -18 24 76 2 67 -2 98 -10 104 -10 6 -10 11 0 23 11
14 11 16 -3 16 -9 0 -19 -7 -22 -15z"/>
<path d="M7917 2973 c-3 -10 -8 -31 -11 -46 -4 -15 -11 -25 -17 -21 -34 21
-117 -45 -126 -100 -5 -30 -1 -42 17 -61 27 -28 52 -32 70 -10 7 8 19 15 26
15 8 0 11 -6 8 -15 -7 -18 12 -20 23 -2 9 14 41 189 42 230 1 30 -25 38 -32
10z m-28 -140 c-5 -21 -9 -41 -9 -45 0 -4 -11 -15 -25 -24 -35 -23 -59 -4 -49
40 9 42 32 66 64 66 27 0 28 -1 19 -37z"/>
<path d="M9091 2968 c-9 -21 -51 -219 -51 -239 0 -16 29 -9 38 9 6 9 13 36 17
58 7 48 43 88 64 74 12 -7 13 -20 4 -77 -6 -37 -8 -70 -6 -73 2 -2 12 1 21 6
11 7 20 32 26 67 14 97 -7 131 -65 101 l-30 -15 7 35 c10 57 10 69 -3 73 -7 3
-17 -6 -22 -19z"/>
<path d="M11162 2863 c-27 -153 -26 -143 -4 -143 16 0 22 19 40 119 27 144 27
151 4 151 -15 0 -21 -21 -40 -127z"/>
<path d="M4140 2951 c-35 -51 -52 -104 -53 -166 -1 -56 14 -105 31 -105 4 0 7
42 7 93 0 82 3 99 28 146 30 59 31 61 18 61 -5 0 -19 -13 -31 -29z"/>
<path d="M4415 2888 c0 -80 -4 -101 -27 -150 -31 -68 -20 -77 19 -15 39 62 55
140 42 205 -17 85 -34 65 -34 -40z"/>
<path d="M9290 2965 c-14 -16 -5 -35 16 -35 8 0 14 2 14 4 0 2 3 11 6 19 7 20
-22 29 -36 12z"/>
<path d="M11092 2967 c-15 -17 1 -42 23 -33 18 6 17 37 -1 43 -6 2 -16 -2 -22
-10z"/>
<path d="M3552 2954 c-33 -23 -27 -31 21 -30 39 1 42 -1 45 -27 3 -23 -8 -38
-62 -90 -36 -35 -66 -68 -66 -75 0 -8 24 -12 75 -12 68 0 75 2 75 20 0 17 -7
20 -46 20 l-47 0 29 22 c66 52 99 110 81 143 -24 45 -66 57 -105 29z"/>
<path d="M3748 2963 c-35 -9 -20 -33 21 -33 25 0 41 -5 45 -15 7 -20 -20 -45
-50 -45 -33 0 -30 -16 6 -35 55 -29 33 -75 -36 -75 -52 0 -69 -25 -23 -35 91
-20 169 63 107 116 -11 11 -16 19 -10 19 17 0 42 30 42 50 0 41 -50 67 -102
53z"/>
<path d="M4000 2963 c0 -5 -17 -27 -38 -50 -98 -110 -102 -123 -37 -123 45 0
45 0 45 -35 0 -23 5 -35 14 -35 15 0 26 21 26 51 0 13 7 19 21 19 12 0 19 5
16 13 -2 6 -10 11 -16 10 -14 -4 -14 7 3 84 7 34 11 65 8 68 -8 8 -42 6 -42
-2z m-10 -102 c-10 -36 -14 -41 -41 -41 l-29 0 37 50 c41 55 50 53 33 -9z"/>
<path d="M4254 2951 c-53 -32 -80 -134 -52 -196 29 -63 114 -30 141 56 24 72
22 111 -6 137 -28 27 -43 27 -83 3z m56 -26 c27 -33 -14 -175 -51 -175 -53 0
-22 187 32 190 4 0 12 -7 19 -15z"/>
<path d="M4536 2939 c-27 -32 -33 -54 -16 -64 15 -9 12 -19 -15 -51 -31 -36
-31 -54 -2 -82 62 -58 191 22 132 82 -19 19 -19 23 5 53 25 32 25 44 0 71 -30
32 -73 29 -104 -9z m72 -8 c8 -4 12 -19 10 -32 -2 -19 -9 -24 -33 -24 -33 0
-45 25 -25 50 14 17 29 19 48 6z m-10 -140 c-3 -33 -6 -36 -33 -36 -25 0 -30
4 -33 27 -4 35 15 56 45 50 21 -4 24 -10 21 -41z"/>
<path d="M4741 2949 c-34 -28 -52 -66 -58 -124 -4 -41 -1 -55 17 -77 27 -35
57 -35 96 0 36 33 54 79 54 138 0 74 -57 107 -109 63z m69 -64 c0 -52 -25
-121 -47 -129 -42 -16 -53 35 -28 122 14 47 18 52 45 52 29 0 30 -2 30 -45z"/>
<path d="M4928 2963 c-36 -9 -20 -33 22 -33 36 0 40 -3 40 -25 0 -20 -6 -25
-35 -31 -43 -8 -44 -19 -5 -39 39 -20 42 -62 5 -71 -14 -3 -39 -4 -56 -2 -26
4 -30 2 -27 -16 2 -17 11 -22 44 -24 79 -6 135 74 83 119 l-21 18 26 12 c19 9
26 20 26 40 0 45 -45 67 -102 52z"/>
<path d="M5182 2963 c-7 -2 -26 -24 -42 -48 -16 -24 -36 -50 -43 -57 -14 -14
-37 -52 -37 -62 0 -3 20 -6 45 -6 45 0 45 0 45 -36 0 -28 3 -35 18 -32 10 2
18 14 20 32 2 18 11 30 23 33 23 6 26 33 3 33 -10 0 -14 6 -11 18 3 9 8 35 12
57 3 22 8 48 11 58 5 17 -15 22 -44 10z m-6 -87 c-9 -49 -13 -55 -38 -58 -32
-5 -36 9 -10 38 9 10 25 31 35 47 10 15 19 27 20 27 2 0 -2 -24 -7 -54z"/>
<path d="M5333 2948 c-37 -22 -44 -39 -13 -31 25 7 25 -7 5 -114 -8 -43 -15
-79 -15 -80 0 -7 40 -2 40 5 0 4 6 36 14 72 8 36 17 89 21 118 8 59 1 63 -52
30z"/>
<path d="M5503 2960 c-36 -15 -27 -30 18 -30 38 0 40 -2 37 -27 -2 -19 -10
-29 -27 -33 -34 -8 -38 -28 -6 -36 22 -5 26 -11 23 -38 -3 -29 -6 -31 -52 -36
-60 -6 -72 -26 -21 -36 43 -8 83 8 108 42 20 27 16 53 -11 81 -12 12 -14 17
-4 21 47 15 55 65 12 87 -33 17 -45 18 -77 5z"/>
<path d="M5703 2963 c-13 -2 -23 -9 -23 -14 0 -5 0 -12 0 -16 0 -4 17 -7 38
-7 34 -1 37 -4 40 -31 3 -32 -13 -54 -87 -114 -61 -51 -55 -61 34 -61 68 0 75
2 75 20 0 17 -7 20 -47 20 l-46 0 35 28 c39 29 72 74 83 109 4 17 -1 29 -19
48 -24 24 -37 27 -83 18z"/>
<path d="M5860 2950 c0 -17 7 -20 50 -20 28 0 50 -2 50 -4 0 -10 -103 -171
-111 -174 -5 -2 -9 -10 -9 -18 0 -22 36 -16 49 9 19 36 33 59 79 128 60 93 58
99 -33 99 -68 0 -75 -2 -75 -20z"/>
<path d="M6100 2963 c-27 -10 -60 -55 -60 -82 0 -15 7 -37 16 -50 14 -19 23
-22 50 -18 61 10 30 -35 -36 -53 -42 -11 -56 -40 -20 -40 45 0 99 39 125 90
31 61 31 84 3 127 -22 32 -43 39 -78 26z m44 -39 c32 -32 6 -88 -38 -82 -28 4
-34 52 -10 79 21 23 28 24 48 3z"/>
<path d="M6262 2941 c-32 -30 -41 -66 -26 -105 8 -21 70 -32 89 -16 22 18 18
-3 -5 -28 -11 -12 -38 -26 -60 -32 -41 -11 -51 -26 -25 -36 19 -8 73 14 97 38
28 28 58 95 58 129 0 22 -8 39 -27 55 -37 32 -62 30 -101 -5z m88 -52 c0 -32
-35 -57 -64 -46 -17 7 -22 53 -8 73 23 35 72 17 72 -27z"/>
<path d="M7086 2858 c7 -131 8 -138 29 -138 13 0 55 76 93 170 8 20 11 4 11
-72 1 -89 3 -98 20 -98 10 0 23 6 28 13 20 26 106 227 100 233 -15 15 -34 -8
-60 -72 -16 -38 -33 -78 -37 -89 -6 -14 -9 2 -9 50 -1 39 -4 80 -7 93 -8 29
-42 29 -53 -1 -5 -12 -18 -43 -29 -67 -10 -25 -24 -56 -29 -70 -9 -21 -12 -9
-18 68 -6 81 -9 92 -26 92 -17 0 -18 -7 -13 -112z"/>
<path d="M8435 2958 c-32 -12 -47 -27 -39 -40 3 -4 11 -5 19 -1 19 7 19 -5 0
-104 -8 -43 -15 -82 -15 -86 0 -15 33 -3 37 13 19 85 42 198 43 213 0 19 -3
20 -45 5z"/>
<path d="M8633 2958 c-16 -27 -113 -223 -113 -230 0 -20 38 -6 44 16 9 37 34
56 72 56 29 0 34 -3 34 -24 0 -37 10 -56 31 -56 22 0 22 -4 4 130 -8 58 -15
108 -15 113 0 12 -48 8 -57 -5z m30 -80 c4 -47 4 -48 -24 -48 -16 0 -29 3 -29
6 0 12 44 107 46 98 1 -5 4 -30 7 -56z"/>
<path d="M9387 2944 c-4 -4 -7 -15 -7 -25 0 -9 -7 -19 -15 -23 -8 -3 -15 -10
-15 -16 0 -6 5 -8 11 -4 7 4 9 0 6 -12 -12 -42 -18 -104 -12 -124 9 -28 65
-29 65 0 0 11 -7 20 -15 20 -32 0 -12 98 22 111 24 9 23 29 -1 29 -7 0 -12 10
-12 21 1 22 -15 35 -27 23z"/>
<path d="M9853 2943 c-7 -2 -13 -13 -13 -24 0 -10 -7 -19 -15 -19 -16 0 -21
-26 -6 -32 5 -2 5 -28 -1 -62 -9 -53 -9 -61 8 -73 27 -20 54 -16 54 7 0 11 -7
20 -15 20 -13 0 -15 8 -10 38 11 60 16 72 29 72 8 0 19 7 26 15 10 13 9 15 -9
15 -16 0 -21 6 -21 25 0 25 -4 28 -27 18z"/>
<path d="M10138 2925 c-37 -21 -72 -98 -64 -143 6 -39 57 -91 90 -94 38 -2 71
3 81 14 7 7 1 9 -22 5 -42 -8 -92 7 -111 35 -30 41 -8 148 34 167 43 19 98 14
122 -12 37 -39 26 -127 -15 -127 -10 0 -12 13 -7 55 l7 55 -34 0 c-46 0 -77
-23 -85 -65 -10 -53 39 -87 75 -52 11 10 14 10 18 0 7 -19 41 -16 65 7 32 30
30 103 -4 137 -33 32 -109 41 -150 18z m82 -101 c-13 -55 -51 -72 -58 -25 -4
26 23 61 48 61 15 0 17 -5 10 -36z"/>
<path d="M3360 2880 l0 -40 -40 0 c-29 0 -40 -4 -40 -15 0 -11 11 -15 40 -15
l40 0 0 -45 c0 -33 4 -45 15 -45 11 0 15 12 15 45 l0 45 40 0 c29 0 40 4 40
15 0 11 -11 15 -40 15 l-40 0 0 40 c0 29 -4 40 -15 40 -11 0 -15 -11 -15 -40z"/>
<path d="M7418 2894 c-56 -30 -74 -105 -36 -149 27 -31 62 -32 104 -3 61 42
65 131 7 157 -31 14 -42 13 -75 -5z m74 -64 c-5 -48 -28 -82 -54 -78 -34 5
-43 30 -29 78 12 40 14 41 49 38 36 -3 37 -4 34 -38z"/>
<path d="M7650 2891 c-22 -17 -25 -18 -36 -4 -17 24 -31 9 -37 -39 -3 -24 -9
-62 -13 -85 -6 -39 -5 -43 14 -43 17 0 21 9 27 53 9 66 29 99 58 95 24 -3 26
-21 13 -95 -6 -35 -5 -44 9 -49 22 -9 23 -7 37 75 12 72 12 74 -11 92 -28 23
-30 23 -61 0z"/>
<path d="M8035 2898 c-36 -19 -64 -55 -70 -89 -11 -62 55 -108 119 -83 9 3 16
12 16 20 0 11 -9 13 -39 8 -33 -5 -41 -3 -50 14 -16 30 -15 32 27 32 27 0 45
7 60 23 27 29 27 37 2 65 -23 25 -36 27 -65 10z m43 -45 c-2 -13 -14 -19 -41
-21 -36 -3 -37 -2 -25 17 17 27 71 30 66 4z"/>
<path d="M8224 2893 c-13 -13 -19 -14 -22 -5 -2 6 -12 12 -21 12 -14 0 -19
-11 -24 -52 -4 -29 -9 -70 -13 -92 -6 -34 -5 -38 12 -34 14 2 22 19 32 65 11
53 17 63 43 73 17 8 29 20 29 31 0 24 -13 24 -36 2z"/>
<path d="M8852 2894 c-18 -13 -26 -13 -38 -3 -21 18 -30 3 -43 -72 -15 -89
-14 -99 8 -99 15 0 20 10 25 50 9 69 13 76 47 90 17 8 29 20 29 31 0 23 0 23
-28 3z"/>
<path d="M8948 2889 c-25 -13 -43 -31 -53 -55 -20 -48 -19 -55 10 -87 27 -29
72 -36 93 -15 19 19 14 29 -13 22 -34 -8 -55 11 -55 51 0 38 26 65 62 65 30 0
38 7 31 26 -7 18 -29 16 -75 -7z"/>
<path d="M9499 2871 c-49 -49 -54 -98 -13 -130 30 -23 74 -27 92 -9 21 21 13
30 -18 23 -19 -4 -36 -2 -45 5 -24 20 -18 40 10 40 31 0 81 25 88 42 7 21 -14
56 -37 62 -34 9 -36 8 -77 -33z m77 -18 c-3 -8 -6 -17 -6 -19 0 -2 -13 -4 -30
-4 -33 0 -38 11 -15 33 18 19 58 10 51 -10z"/>
<path d="M9709 2898 c-61 -25 -89 -118 -47 -158 29 -27 91 -25 96 3 3 15 0 18
-17 12 -31 -10 -61 11 -61 43 0 41 26 72 60 72 33 0 49 18 29 31 -17 10 -26
10 -60 -3z"/>
<path d="M9968 2893 c-35 -22 -36 -55 -3 -81 14 -11 25 -30 25 -42 0 -19 -4
-22 -35 -18 -41 5 -58 -18 -21 -28 40 -10 68 0 90 29 l21 29 -32 27 c-33 28
-44 60 -20 62 6 1 19 2 27 3 22 2 18 31 -5 33 -11 2 -32 -5 -47 -14z"/>
<path d="M10426 2903 c-30 -8 -73 -56 -80 -90 -14 -60 35 -108 80 -78 26 17
30 9 12 -30 -9 -21 -18 -25 -55 -25 -31 0 -43 -4 -41 -12 7 -20 76 -22 104 -3
31 20 40 43 57 146 l14 81 -24 9 c-26 9 -36 10 -67 2z m44 -53 c0 -11 -7 -37
-15 -56 -12 -30 -19 -35 -42 -32 -24 3 -28 7 -26 33 4 49 23 75 55 75 21 0 28
-5 28 -20z"/>
<path d="M10641 2897 c-36 -18 -38 -36 -4 -34 31 2 32 0 19 -91 -7 -49 -7 -54
10 -50 14 2 22 18 30 58 17 82 23 92 53 88 24 -3 26 -6 23 -41 -2 -21 -8 -52
-13 -69 -10 -37 -5 -46 19 -32 10 7 21 34 28 70 16 92 -9 129 -68 98 -27 -14
-31 -14 -47 0 -21 19 -20 19 -50 3z"/>
<path d="M10919 2892 c-63 -28 -92 -103 -57 -147 22 -29 44 -32 76 -9 20 14
22 14 22 0 0 -9 9 -16 20 -16 16 0 20 7 20 34 0 19 5 58 12 86 10 43 9 53 -3
61 -20 12 -48 10 -90 -9z m51 -54 c-17 -66 -23 -77 -41 -83 -28 -9 -39 2 -39
38 0 45 25 77 60 77 27 0 28 -2 20 -32z"/>
<path d="M11390 2899 c-28 -10 -65 -60 -75 -100 -12 -47 56 -93 109 -73 28 11
19 35 -9 28 -34 -8 -55 11 -55 52 0 40 22 64 59 64 34 0 44 9 30 27 -13 15
-24 15 -59 2z"/>
<path d="M11540 2903 c-25 -7 -61 -60 -67 -97 -4 -28 -1 -39 22 -61 46 -47
117 -20 143 54 23 65 -33 124 -98 104z m60 -71 c0 -65 -48 -106 -80 -67 -14
17 -5 86 13 97 7 4 24 8 40 8 25 0 27 -3 27 -38z"/>
<path d="M11762 2893 c-17 -12 -25 -13 -36 -4 -20 17 -31 -3 -44 -80 -16 -86
-15 -89 7 -89 16 0 20 10 26 53 8 63 28 97 56 97 20 0 21 -3 14 -75 -4 -46 -3
-75 3 -75 17 0 30 24 37 70 10 58 24 80 54 80 23 0 24 -2 17 -52 -3 -29 -9
-63 -12 -75 -5 -18 -2 -23 14 -23 22 0 27 13 38 98 5 43 3 56 -11 72 -22 25
-33 25 -64 1 -23 -18 -24 -18 -42 0 -23 23 -27 23 -57 2z"/>
<path d="M9276 2892 c-2 -4 -9 -36 -16 -72 -6 -36 -13 -73 -16 -83 -5 -15 -1
-18 17 -15 20 3 25 12 35 68 17 88 17 110 0 110 -8 0 -17 -3 -20 -8z"/>
<path d="M10574 2885 c3 -8 2 -15 -3 -15 -12 0 -30 -133 -20 -144 6 -6 12 -6
18 0 15 15 40 134 29 140 -5 3 -4 12 3 20 9 11 7 14 -11 14 -16 0 -20 -4 -16
-15z"/>
<path d="M11062 2827 c-6 -40 -14 -81 -18 -91 -5 -14 -2 -17 16 -14 21 3 25
12 40 91 l17 87 -22 0 c-19 0 -23 -8 -33 -73z"/>
<path d="M6690 2809 c-19 -20 -40 -37 -46 -38 -5 -1 -23 -15 -39 -31 l-29 -31
158 2 159 1 -29 24 c-16 13 -54 44 -84 67 l-55 43 -35 -37z m44 5 c3 -8 2 -12
-4 -9 -6 3 -10 10 -10 16 0 14 7 11 14 -7z"/>
<path d="M8260 2770 c-12 -7 -12 -13 -4 -27 16 -26 39 -22 39 6 0 27 -13 35
-35 21z"/>
<path d="M11229 2764 c-10 -12 -9 -18 4 -31 13 -13 19 -14 31 -3 21 17 20 27
-3 39 -14 8 -22 7 -32 -5z"/>
<path d="M8354 2482 c-6 -4 -18 -27 -26 -52 -14 -43 -17 -45 -62 -52 -50 -7
-101 -50 -91 -76 3 -7 1 -11 -4 -8 -5 3 -11 -10 -13 -29 -4 -34 6 -48 15 -22
2 6 2 2 0 -11 -7 -44 46 -73 79 -42 27 25 45 26 51 3 6 -26 24 22 37 100 6 34
13 71 15 82 10 61 17 115 14 115 -2 0 -9 -4 -15 -8z m-4 -67 c0 -8 -4 -15 -10
-15 -5 0 -7 7 -4 15 4 8 8 15 10 15 2 0 4 -7 4 -15z m-28 -83 c-6 -2 -12 -11
-12 -20 0 -40 -21 -89 -43 -99 -28 -13 -67 0 -69 24 -4 50 -2 81 4 77 4 -3 12
4 17 15 15 27 81 42 101 22 11 -11 12 -15 2 -19z"/>
<path d="M4622 2429 c-7 -28 -9 -55 -6 -61 4 -6 2 -13 -5 -17 -6 -4 -13 -32
-17 -62 -3 -29 -7 -64 -9 -76 -2 -15 1 -23 10 -23 8 0 17 15 21 38 4 20 11 46
17 57 6 11 11 40 12 65 1 25 6 64 9 88 6 33 5 42 -6 42 -9 0 -19 -19 -26 -51z"/>
<path d="M7490 2463 c0 -15 2 -16 10 -3 6 9 10 10 10 3 0 -7 -6 -16 -14 -20
-12 -8 -26 -49 -27 -83 0 -8 -3 -22 -6 -30 -3 -8 -7 -24 -8 -35 -1 -11 -5 -27
-9 -36 -11 -24 11 -68 38 -79 28 -10 86 7 86 27 0 7 6 10 13 7 8 -3 22 13 36
44 21 46 22 51 7 85 -16 38 -23 41 -75 31 -39 -8 -41 -22 -2 -16 22 3 32 -1
40 -16 16 -29 4 -88 -22 -115 -29 -28 -75 -25 -82 6 -6 28 -2 60 8 68 5 3 10
21 12 40 3 19 7 58 11 87 6 44 4 52 -10 52 -9 0 -16 -8 -16 -17z"/>
<path d="M10246 2461 c-4 -5 -3 -16 0 -25 5 -12 9 -13 19 -3 7 6 10 18 8 24
-6 15 -19 17 -27 4z"/>
<path d="M5090 2400 c-7 -16 -16 -27 -21 -24 -5 3 -9 1 -9 -5 0 -5 5 -13 10
-16 14 -8 3 -107 -12 -116 -15 -10 -2 -39 17 -39 9 0 13 -5 9 -11 -4 -7 2 -9
17 -7 25 3 39 28 16 28 -19 0 -32 35 -20 52 4 7 8 20 8 28 0 8 3 20 6 25 15
24 19 67 8 86 -8 15 -8 19 0 15 6 -4 11 -2 11 3 0 23 -28 9 -40 -19z"/>
<path d="M7031 2414 c0 -11 3 -14 6 -6 3 7 2 16 -1 19 -3 4 -6 -2 -5 -13z"/>
<path d="M7051 2413 c-1 -13 -7 -23 -16 -23 -8 0 -15 -4 -15 -10 0 -5 -3 -9
-7 -9 -20 3 -26 -2 -13 -11 9 -6 15 -26 16 -56 1 -29 -2 -41 -7 -33 -10 16
-13 -50 -3 -75 8 -21 54 -21 54 -1 0 9 -7 15 -17 13 -11 -2 -18 4 -20 17 l-3
20 9 -20 c8 -16 10 -10 10 27 1 28 -4 48 -11 51 -10 4 -10 6 0 6 7 1 17 12 22
26 6 15 17 25 30 25 12 0 20 7 20 16 0 13 -3 14 -15 4 -12 -10 -16 -6 -24 22
-7 25 -9 28 -10 11z"/>
<path d="M9604 2405 c-3 -14 -12 -25 -19 -25 -8 0 -17 -5 -21 -12 -5 -8 -2 -9
9 -5 16 6 23 -5 17 -28 -2 -5 -7 -35 -11 -65 -6 -44 -5 -60 8 -80 l17 -25 6
25 c4 14 3 30 -1 35 -4 6 -2 37 4 70 11 55 14 60 40 63 15 2 27 9 27 18 0 16
-16 19 -22 5 -1 -5 -12 -3 -22 5 -11 8 -14 14 -8 14 7 0 12 7 12 15 0 25 -29
17 -36 -10z"/>
<path d="M10520 2409 c0 -12 -8 -23 -20 -26 -11 -3 -20 -9 -20 -13 0 -14 28
-19 34 -7 2 7 5 5 5 -4 1 -9 -6 -22 -15 -30 -9 -8 -13 -21 -10 -35 4 -13 2
-26 -4 -29 -15 -9 -12 -54 4 -71 19 -19 63 -18 63 1 0 8 -6 15 -13 15 -6 0
-14 6 -17 14 -7 17 2 94 13 121 5 11 10 35 13 53 3 26 0 32 -15 32 -12 0 -18
-7 -18 -21z"/>
<path d="M4906 2375 c-7 -8 -16 -11 -20 -8 -3 3 -8 -2 -12 -11 -3 -9 -12 -16
-19 -16 -16 0 -28 -28 -18 -42 3 -6 1 -8 -4 -5 -13 8 -23 -14 -23 -48 0 -27
49 -82 59 -67 3 5 16 12 29 16 12 4 22 12 22 17 0 6 -5 7 -11 4 -5 -4 -20 -8
-32 -9 -19 -2 -22 3 -25 42 -4 58 35 115 76 110 25 -3 27 -6 27 -55 0 -28 -3
-49 -7 -47 -15 9 -17 -16 -4 -47 12 -30 14 -31 24 -13 10 18 35 175 30 179 -2
1 -20 5 -40 8 -26 4 -42 1 -52 -8z"/>
<path d="M5140 2375 c0 -8 4 -15 8 -15 5 0 9 7 9 15 0 8 -4 15 -9 15 -4 0 -8
-7 -8 -15z"/>
<path d="M5655 2377 c-33 -11 -47 -23 -63 -54 -15 -27 -16 -90 -2 -98 6 -4 8
-10 5 -15 -14 -22 64 -39 105 -23 l25 10 -32 7 c-18 4 -37 5 -43 1 -14 -9 -40
19 -40 43 0 15 9 21 45 26 65 8 85 22 85 55 0 44 -36 65 -85 48z m53 -23 c12
-4 22 -11 22 -16 0 -5 -4 -6 -10 -3 -5 3 -10 1 -10 -4 0 -6 6 -11 13 -12 17
-1 -50 -24 -93 -32 -19 -4 -30 -4 -25 1 6 4 11 14 13 22 9 40 42 56 90 44z"/>
<path d="M6139 2377 c-8 -7 -20 -12 -27 -9 -6 2 -12 -3 -12 -12 0 -9 -6 -16
-14 -16 -18 0 -46 -60 -46 -97 0 -59 62 -82 104 -40 13 13 28 21 34 19 6 -2
12 7 15 20 l4 23 2 -23 c0 -12 -6 -25 -14 -28 -19 -8 -20 -24 -1 -24 17 0 23
17 31 90 3 30 9 65 12 78 4 17 1 22 -13 22 -11 0 -28 3 -40 6 -12 3 -27 -1
-35 -9z m44 -65 c-2 -50 -24 -89 -56 -101 -31 -12 -47 5 -47 49 0 51 41 102
79 98 24 -3 26 -6 24 -46z"/>
<path d="M6314 2375 c-15 -26 -37 -172 -29 -185 10 -16 35 15 35 42 0 44 21
97 46 117 33 26 52 18 60 -25 4 -20 11 -31 17 -27 6 3 7 1 3 -6 -4 -6 -12 -9
-17 -6 -5 4 -9 -5 -9 -19 0 -14 -4 -28 -10 -31 -18 -11 -11 -45 9 -45 21 0 36
26 21 35 -6 4 -10 1 -10 -6 0 -7 -3 -10 -6 -6 -3 3 -1 14 5 24 6 10 11 14 11
8 0 -5 5 -3 10 5 14 21 12 104 -2 118 -17 17 -64 15 -82 -3 -21 -21 -34 -19
-38 8 -3 21 -4 22 -14 2z m16 -45 c0 -5 -2 -10 -4 -10 -3 0 -8 5 -11 10 -3 6
-1 10 4 10 6 0 11 -4 11 -10z"/>
<path d="M6812 2370 c-18 -11 -40 -36 -48 -55 -16 -40 -20 -110 -4 -85 8 12
10 11 10 -7 0 -25 27 -43 65 -43 66 0 120 81 101 152 -6 21 -14 38 -19 38 -4
0 -5 -10 -2 -21 5 -15 4 -19 -4 -15 -6 4 -11 16 -11 27 0 10 -6 19 -14 19 -8
0 -20 2 -28 5 -7 3 -28 -4 -46 -15z m93 -59 c8 -24 12 -41 9 -38 -4 4 -15 -8
-24 -26 -14 -26 -25 -33 -60 -38 -49 -7 -58 5 -42 56 7 25 7 35 -2 38 -21 7
48 56 76 55 23 -2 30 -10 43 -47z m22 -13 c-3 -8 -6 -5 -6 6 -1 11 2 17 5 13
3 -3 4 -12 1 -19z"/>
<path d="M7330 2383 c-14 -2 -32 -7 -40 -10 -8 -4 -19 -7 -23 -7 -5 -1 -20
-14 -32 -31 -17 -21 -21 -33 -14 -42 6 -6 9 -22 6 -35 -4 -20 -4 -19 -6 5 -1
31 -21 28 -21 -4 0 -38 30 -69 66 -69 18 0 35 4 38 9 3 5 14 11 24 13 17 5 18
2 7 -30 -7 -20 -20 -41 -29 -47 -8 -7 -14 -14 -12 -16 3 -2 -17 -5 -42 -7 -34
-2 -43 0 -32 8 13 8 13 10 -2 10 -28 0 -21 -18 12 -35 17 -9 30 -11 30 -5 0 5
11 10 25 10 34 0 78 47 72 77 -2 13 -1 23 2 23 7 0 31 124 31 155 0 19 -29 32
-60 28z m25 -45 c-2 -18 -3 -43 -4 -55 -1 -30 -40 -70 -74 -77 -18 -4 -26 -3
-23 3 4 5 2 12 -4 16 -15 9 -12 58 5 81 22 29 17 43 -5 15 -11 -13 -20 -19
-20 -15 0 16 17 35 31 38 8 2 21 6 29 9 8 3 26 8 40 10 14 2 25 5 26 6 1 0 0
-14 -1 -31z m22 0 c-3 -7 -5 -2 -5 12 0 14 2 19 5 13 2 -7 2 -19 0 -25z"/>
<path d="M7731 2363 c-23 -18 -31 -32 -28 -45 4 -16 3 -17 -9 -7 -11 9 -14 8
-14 -4 0 -8 -3 -28 -6 -45 -5 -25 -1 -36 21 -56 30 -28 61 -32 110 -15 58 21
81 133 37 172 -33 28 -75 28 -111 0z m95 -61 c-3 -70 -19 -92 -65 -92 -30 0
-40 4 -44 20 -7 27 3 100 14 100 5 0 9 7 9 15 0 9 6 12 15 9 8 -4 15 -1 15 4
0 8 9 8 29 1 28 -10 30 -14 27 -57z"/>
<path d="M8465 2376 c-11 -6 -23 -16 -28 -23 -4 -7 -15 -19 -24 -28 -14 -14
-14 -18 -2 -26 11 -7 11 -9 -3 -9 -21 0 -23 -18 -6 -57 16 -36 37 -52 66 -53
29 0 92 29 92 42 0 5 -6 6 -12 2 -8 -4 -10 -3 -5 2 5 5 14 9 20 9 7 0 14 14
17 30 6 31 -7 105 -19 105 -3 0 -22 4 -41 9 -22 5 -43 4 -55 -3z m71 -27 c12
-20 13 -82 3 -102 -16 -29 -42 -57 -54 -57 -5 0 -3 5 5 11 12 8 9 10 -13 6
-32 -5 -39 3 -43 51 -3 38 17 87 38 95 24 10 57 7 64 -4z"/>
<path d="M8920 2380 c-47 -8 -63 -19 -56 -37 3 -8 1 -11 -4 -8 -6 3 -10 1 -10
-5 0 -19 20 -50 33 -50 18 0 39 -38 33 -58 -5 -13 -16 -17 -46 -16 -43 1 -53
-10 -20 -21 32 -10 82 4 76 22 -4 11 -1 13 14 8 16 -5 20 -2 20 17 -1 27 -15
47 -52 71 -16 10 -28 24 -28 31 0 15 57 39 70 31 5 -3 11 -1 14 4 9 15 -5 18
-44 11z m10 -105 c7 -9 8 -15 2 -15 -5 0 -12 7 -16 15 -3 8 -4 15 -2 15 2 0 9
-7 16 -15z"/>
<path d="M9870 2376 c-40 -10 -48 -17 -68 -58 -17 -35 -22 -56 -17 -78 4 -17
9 -29 13 -26 3 3 12 -3 20 -15 11 -16 23 -19 55 -17 54 4 58 23 5 24 -45 2
-74 26 -62 54 4 8 7 30 6 48 -1 18 2 31 7 28 5 -3 11 1 15 9 3 8 18 15 33 15
31 0 60 15 47 22 -5 3 -29 0 -54 -6z"/>
<path d="M10353 2378 c-32 -11 -45 -28 -21 -28 9 0 9 -3 0 -12 -7 -7 -12 -21
-12 -32 0 -10 3 -16 7 -13 10 10 54 -43 51 -61 -2 -9 -12 -18 -23 -20 -58 -8
-69 -13 -54 -23 26 -16 66 -9 93 16 37 34 31 63 -19 91 -28 16 -32 54 -6 61
11 3 22 11 25 19 6 16 4 16 -41 2z"/>
<path d="M10560 2375 c0 -16 16 -20 24 -6 3 5 -1 11 -9 15 -9 3 -15 0 -15 -9z"/>
<path d="M4277 2373 c-6 -11 4 -73 12 -73 4 0 5 -18 3 -39 -2 -21 1 -49 8 -61
11 -20 13 -21 30 -5 11 10 26 39 35 66 9 27 21 49 26 49 5 0 9 7 9 16 0 8 5
12 11 8 7 -4 9 -21 5 -46 -4 -23 -1 -54 6 -73 10 -28 15 -32 30 -24 20 11 65
106 60 128 -2 7 1 10 6 7 12 -7 25 22 16 35 -3 5 3 9 13 10 11 0 13 3 5 6 -19
7 -40 -14 -47 -48 -4 -16 -10 -29 -14 -29 -4 0 -13 -18 -20 -40 -13 -45 -31
-45 -31 -1 0 58 -13 121 -25 121 -13 0 -76 -122 -78 -152 -1 -10 -5 -14 -9
-10 -5 5 -9 43 -11 85 -2 65 -5 77 -19 77 -9 0 -19 -3 -21 -7z m150 -135 c-3
-7 -5 -2 -5 12 0 14 2 19 5 13 2 -7 2 -19 0 -25z"/>
<path d="M4669 2363 c-8 -9 -4 -12 18 -10 l28 2 -1 -82 c0 -56 3 -84 12 -87
14 -6 40 141 29 173 -5 17 -13 21 -41 19 -19 -1 -40 -8 -45 -15z m68 -105 c-3
-7 -5 -2 -5 12 0 14 2 19 5 13 2 -7 2 -19 0 -25z"/>
<path d="M5283 2302 c3 -43 9 -86 13 -95 8 -21 44 -23 44 -1 0 8 5 12 11 8 8
-4 9 1 4 17 -4 13 -4 21 1 16 4 -4 18 16 30 45 l22 52 6 -32 c3 -18 9 -47 13
-64 4 -18 6 -39 4 -45 -1 -7 7 -13 18 -13 15 0 23 11 32 40 7 22 16 40 20 40
12 0 39 61 32 73 -3 5 -1 7 4 4 6 -4 13 2 16 13 4 15 0 20 -13 20 -24 0 -29
-9 -32 -53 -2 -19 -5 -33 -7 -31 -6 6 -31 -47 -31 -67 0 -11 -5 -16 -14 -13
-9 3 -12 17 -10 42 6 60 -5 122 -22 122 -8 0 -25 -22 -38 -50 -13 -27 -26 -47
-30 -43 -3 3 -6 1 -6 -6 0 -16 -29 -85 -34 -80 -2 2 -1 23 4 47 4 23 3 42 -1
42 -5 0 -9 20 -9 45 0 35 -4 45 -16 45 -15 0 -16 -10 -11 -78z m14 -4 c-3 -8
-6 -5 -6 6 -1 11 2 17 5 13 3 -3 4 -12 1 -19z m10 -50 c-3 -8 -6 -5 -6 6 -1
11 2 17 5 13 3 -3 4 -12 1 -19z"/>
<path d="M5935 2373 c-31 -6 -70 -70 -70 -116 0 -31 6 -44 29 -62 16 -13 34
-22 40 -20 6 2 23 6 39 9 15 4 27 13 27 22 0 11 -4 13 -17 6 -9 -6 -29 -6 -47
-1 -29 8 -30 7 -12 -6 11 -8 15 -15 9 -15 -7 0 -15 6 -20 13 -11 17 -12 90 -1
104 6 7 6 18 2 25 -4 7 -4 10 1 6 4 -4 17 -1 29 7 11 8 30 15 43 15 12 0 25 5
28 10 6 10 -38 12 -80 3z m-48 -155 c-3 -7 -5 -2 -5 12 0 14 2 19 5 13 2 -7 2
-19 0 -25z"/>
<path d="M6545 2368 c-4 -14 -11 -48 -27 -126 -11 -55 -6 -74 14 -54 9 9 9 12
-2 13 -8 0 -5 4 8 9 17 7 22 17 22 47 0 39 21 80 49 98 24 14 41 15 41 0 0 -7
4 -15 10 -17 6 -2 5 -18 -1 -43 -21 -78 -22 -102 -5 -108 12 -5 17 3 21 31 4
20 11 46 16 58 6 11 9 36 7 55 -4 43 -42 60 -85 39 -15 -8 -31 -16 -35 -18 -5
-2 -8 3 -8 12 0 19 -19 21 -25 4z m-8 -100 c-3 -8 -6 -5 -6 6 -1 11 2 17 5 13
3 -3 4 -12 1 -19z"/>
<path d="M7947 2368 c-26 -19 -28 -53 -6 -77 11 -12 24 -22 29 -22 6 -1 14 -2
19 -3 5 0 13 -5 18 -10 5 -5 3 -6 -4 -2 -9 5 -13 0 -13 -13 0 -11 -5 -23 -11
-27 -8 -4 -7 -9 2 -15 11 -7 10 -9 -3 -9 -9 0 -18 5 -20 12 -3 7 -14 9 -33 4
-23 -6 -26 -9 -14 -17 40 -25 124 9 103 42 -4 8 -3 10 4 5 7 -4 12 -3 12 3 0
23 -14 43 -41 57 -31 16 -39 51 -14 60 8 4 15 10 15 15 0 13 -23 11 -43 -3z"/>
<path d="M8005 2370 c3 -5 10 -10 16 -10 5 0 9 5 9 10 0 6 -7 10 -16 10 -8 0
-12 -4 -9 -10z"/>
<path d="M8672 2353 c-31 -30 -47 -63 -32 -63 6 0 10 -5 10 -11 0 -5 -4 -7
-10 -4 -21 13 -9 -42 15 -68 25 -27 63 -35 99 -21 27 10 18 19 -21 21 -27 2
-33 -1 -23 -7 13 -9 13 -10 0 -10 -19 1 -53 47 -47 64 3 8 27 17 54 20 26 4
55 9 64 12 18 5 32 51 17 60 -4 3 -6 9 -3 14 7 11 -20 20 -61 20 -24 0 -43 -8
-62 -27z m98 -24 c0 -14 -12 -25 -36 -35 -32 -14 -39 -14 -51 -1 -12 12 -13
18 -2 35 28 45 89 45 89 1z"/>
<path d="M9115 2368 c-4 -14 -25 -151 -25 -167 0 -6 8 -11 18 -10 10 0 12 3 5
6 -7 2 -13 10 -13 15 0 6 3 8 7 4 13 -13 31 37 22 62 -6 16 -6 21 2 16 8 -4 9
1 4 17 -4 17 -3 20 3 10 8 -11 12 -9 22 8 15 29 50 42 67 25 13 -13 12 -132
-2 -154 -3 -5 1 -10 9 -10 9 0 16 8 16 18 0 10 5 23 10 28 7 7 8 19 1 37 -8
20 -7 26 2 24 7 -1 13 13 15 37 2 25 0 36 -7 31 -6 -3 -11 -1 -11 4 0 19 -63
12 -86 -10 -25 -23 -53 -17 -33 7 9 11 8 14 -5 14 -9 0 -18 -6 -21 -12z m132
-120 c-3 -8 -6 -5 -6 6 -1 11 2 17 5 13 3 -3 4 -12 1 -19z"/>
<path d="M9390 2373 c-28 -11 -50 -47 -45 -73 4 -17 3 -21 -3 -11 -6 8 -12 9
-16 3 -3 -6 -2 -13 3 -17 6 -3 8 -11 5 -19 -9 -24 14 -63 41 -70 32 -8 98 11
89 26 -4 6 -1 9 7 6 8 -3 22 8 32 24 21 36 23 62 2 54 -8 -3 -15 -1 -15 4 0 6
7 10 15 10 23 0 18 18 -11 45 -26 24 -69 31 -104 18z m78 -26 c17 -14 15 -78
-4 -105 -24 -35 -62 -46 -91 -27 -13 9 -21 20 -18 26 4 5 8 26 10 47 2 22 12
43 24 53 11 9 18 19 15 21 -9 10 51 -5 64 -15z"/>
<path d="M10000 2370 c0 -5 7 -10 16 -10 8 0 13 -3 11 -7 -3 -5 1 -21 7 -38
12 -27 11 -33 -15 -66 -16 -20 -26 -39 -22 -43 3 -3 -1 -6 -10 -6 -9 0 -17 -5
-17 -10 0 -6 13 -4 30 5 17 9 30 22 30 29 0 7 7 19 15 26 13 10 17 7 30 -24
14 -34 39 -55 51 -44 7 8 -46 119 -54 114 -5 -3 -9 1 -9 8 0 31 -26 76 -44 76
-11 0 -19 -4 -19 -10z"/>
<path d="M10105 2344 c-18 -23 -24 -39 -18 -45 7 -7 17 0 28 18 10 15 28 35
39 45 l21 17 -21 1 c-13 0 -32 -14 -49 -36z"/>
<path d="M10224 2372 c-6 -4 -12 -20 -12 -37 0 -16 -5 -54 -12 -83 -14 -65
-11 -77 15 -59 18 14 26 59 28 149 0 15 4 25 8 22 5 -3 9 0 9 5 0 13 -20 14
-36 3z m-7 -114 c-3 -7 -5 -2 -5 12 0 14 2 19 5 13 2 -7 2 -19 0 -25z"/>
<path d="M10405 2370 c-3 -5 -2 -10 4 -10 5 0 13 5 16 10 3 6 2 10 -4 10 -5 0
-13 -4 -16 -10z"/>
<path d="M9924 2364 c-6 -3 -9 -15 -7 -28 4 -17 -1 -27 -16 -36 -12 -6 -25 -9
-30 -6 -4 3 -17 -2 -27 -10 -18 -14 -17 -15 15 -10 18 3 39 6 47 6 22 0 44 30
44 61 0 28 -4 32 -26 23z m13 -46 c-3 -8 -6 -5 -6 6 -1 11 2 17 5 13 3 -3 4
-12 1 -19z"/>
<path d="M3957 2217 c-8 -20 9 -41 27 -34 23 9 21 47 -3 47 -10 0 -21 -6 -24
-13z m28 -7 c-3 -5 -12 -10 -18 -10 -7 0 -6 4 3 10 19 12 23 12 15 0z"/>
<path d="M4060 2204 c0 -33 33 -30 38 4 3 17 -2 22 -17 22 -16 0 -21 -6 -21
-26z"/>
<path d="M4167 2223 c-4 -3 -7 -15 -7 -25 0 -28 34 -19 38 10 3 21 -16 31 -31
15z"/>
<path d="M10615 2209 c-8 -25 -1 -34 20 -26 19 8 20 47 1 47 -8 0 -18 -9 -21
-21z"/>
<path d="M10713 2214 c-3 -8 -1 -20 5 -26 15 -15 43 8 35 28 -7 19 -32 18 -40
-2z"/>
<path d="M10813 2216 c-10 -11 -9 -17 2 -26 19 -16 47 -5 43 17 -4 22 -29 27
-45 9z"/>
<path d="M9620 2195 c0 -8 5 -15 10 -15 6 0 10 7 10 15 0 8 -4 15 -10 15 -5 0
-10 -7 -10 -15z"/>
</g>
</svg>
